<svg width="400" height="64" viewBox="0 0 400 64" fill="none" xmlns="http://www.w3.org/2000/svg">
<rect x="0.5" y="0.5" width="399" height="63" rx="31.5" fill="white" fill-opacity="0.1"/>
<rect x="0.5" y="0.5" width="399" height="63" rx="31.5" fill="url(#paint0_radial_604_170)"/>
<rect x="0.5" y="0.5" width="399" height="63" rx="31.5" stroke="url(#paint1_linear_604_170)"/>
<path d="M155 64C155 61.7909 156.791 60 159 60H251C253.209 60 255 61.7909 255 64H155Z" fill="white"/>
<g filter="url(#filter0_d_604_170)">
<path d="M66.5001 24C66.761 24 66.9747 23.8082 67.011 23.5367C67.3697 21.1185 67.6994 20.7819 70.0255 20.5176C70.2936 20.4851 70.5002 20.2606 70.5002 20C70.5002 19.7357 70.2973 19.5186 70.0292 19.4787C67.7175 19.1566 67.4313 18.8742 67.011 16.4597C66.9639 16.1919 66.7573 16 66.5001 16C66.2356 16 66.0254 16.1919 65.982 16.4633C65.6305 18.8778 65.3008 19.2145 62.9783 19.4787C62.7029 19.5149 62.5 19.7321 62.5 20C62.5 20.2606 62.6957 20.4778 62.971 20.5176C65.2863 20.847 65.5689 21.1258 65.982 23.5403C66.0363 23.8118 66.2465 24 66.5001 24Z" fill="url(#paint2_linear_604_170)"/>
<path d="M66.5001 24C66.761 24 66.9747 23.8082 67.011 23.5367C67.3697 21.1185 67.6994 20.7819 70.0255 20.5176C70.2936 20.4851 70.5002 20.2606 70.5002 20C70.5002 19.7357 70.2973 19.5186 70.0292 19.4787C67.7175 19.1566 67.4313 18.8742 67.011 16.4597C66.9639 16.1919 66.7573 16 66.5001 16C66.2356 16 66.0254 16.1919 65.982 16.4633C65.6305 18.8778 65.3008 19.2145 62.9783 19.4787C62.7029 19.5149 62.5 19.7321 62.5 20C62.5 20.2606 62.6957 20.4778 62.971 20.5176C65.2863 20.847 65.5689 21.1258 65.982 23.5403C66.0363 23.8118 66.2465 24 66.5001 24Z" stroke="url(#paint3_linear_604_170)" stroke-width="0.181901"/>
</g>
<g filter="url(#filter1_d_604_170)">
<path d="M78.5003 44.1856C79.283 44.1856 79.9242 43.61 80.033 42.7956C81.109 35.5411 82.0982 34.5312 89.0766 33.7385C89.881 33.6408 90.5006 32.9674 90.5006 32.1855C90.5006 31.3928 89.8919 30.7412 89.0875 30.6217C82.1526 29.6552 81.2938 28.8082 80.033 21.5647C79.8916 20.7611 79.272 20.1855 78.5003 20.1855C77.7068 20.1855 77.0763 20.7611 76.9459 21.5756C75.8915 28.819 74.9024 29.829 67.9348 30.6217C67.1087 30.7303 66.5 31.382 66.5 32.1855C66.5 32.9674 67.087 33.6191 67.9131 33.7385C74.8589 34.7267 75.7067 35.5629 76.9459 42.8064C77.109 43.6208 77.7394 44.1856 78.5003 44.1856Z" fill="url(#paint4_linear_604_170)"/>
<path d="M78.5003 44.1856C79.283 44.1856 79.9242 43.61 80.033 42.7956C81.109 35.5411 82.0982 34.5312 89.0766 33.7385C89.881 33.6408 90.5006 32.9674 90.5006 32.1855C90.5006 31.3928 89.8919 30.7412 89.0875 30.6217C82.1526 29.6552 81.2938 28.8082 80.033 21.5647C79.8916 20.7611 79.272 20.1855 78.5003 20.1855C77.7068 20.1855 77.0763 20.7611 76.9459 21.5756C75.8915 28.819 74.9024 29.829 67.9348 30.6217C67.1087 30.7303 66.5 31.382 66.5 32.1855C66.5 32.9674 67.087 33.6191 67.9131 33.7385C74.8589 34.7267 75.7067 35.5629 76.9459 42.8064C77.109 43.6208 77.7394 44.1856 78.5003 44.1856Z" stroke="url(#paint5_linear_604_170)" stroke-width="0.545704"/>
</g>
<g filter="url(#filter2_d_604_170)">
<path d="M66.5001 47C66.761 47 66.9747 46.8082 67.011 46.5367C67.3697 44.1185 67.6994 43.7819 70.0255 43.5176C70.2936 43.4851 70.5002 43.2606 70.5002 43C70.5002 42.7357 70.2973 42.5186 70.0292 42.4787C67.7175 42.1566 67.4313 41.8742 67.011 39.4597C66.9639 39.1919 66.7573 39 66.5001 39C66.2356 39 66.0254 39.1919 65.982 39.4633C65.6305 41.8778 65.3008 42.2145 62.9783 42.4787C62.7029 42.5149 62.5 42.7321 62.5 43C62.5 43.2606 62.6957 43.4778 62.971 43.5176C65.2863 43.847 65.5689 44.1258 65.982 46.5403C66.0363 46.8118 66.2465 47 66.5001 47Z" fill="url(#paint6_linear_604_170)"/>
<path d="M66.5001 47C66.761 47 66.9747 46.8082 67.011 46.5367C67.3697 44.1185 67.6994 43.7819 70.0255 43.5176C70.2936 43.4851 70.5002 43.2606 70.5002 43C70.5002 42.7357 70.2973 42.5186 70.0292 42.4787C67.7175 42.1566 67.4313 41.8742 67.011 39.4597C66.9639 39.1919 66.7573 39 66.5001 39C66.2356 39 66.0254 39.1919 65.982 39.4633C65.6305 41.8778 65.3008 42.2145 62.9783 42.4787C62.7029 42.5149 62.5 42.7321 62.5 43C62.5 43.2606 62.6957 43.4778 62.971 43.5176C65.2863 43.847 65.5689 44.1258 65.982 46.5403C66.0363 46.8118 66.2465 47 66.5001 47Z" stroke="url(#paint7_linear_604_170)" stroke-width="0.181901"/>
</g>
<path d="M114.505 25.4091V38.5H112.689L106.035 28.8991H105.914V38.5H103.939V25.4091H105.767L112.427 35.0227H112.549V25.4091H114.505ZM121.464 38.6982C120.497 38.6982 119.664 38.4915 118.965 38.0781C118.27 37.6605 117.733 37.0746 117.354 36.3203C116.979 35.5618 116.792 34.6733 116.792 33.6548C116.792 32.6491 116.979 31.7628 117.354 30.9957C117.733 30.2287 118.262 29.63 118.939 29.1996C119.621 28.7692 120.418 28.554 121.33 28.554C121.884 28.554 122.421 28.6456 122.941 28.8288C123.461 29.0121 123.927 29.2997 124.341 29.6918C124.754 30.0838 125.08 30.593 125.318 31.2195C125.557 31.8416 125.676 32.598 125.676 33.4886V34.1662H117.872V32.7344H123.804C123.804 32.2315 123.701 31.7862 123.497 31.3984C123.292 31.0064 123.005 30.6974 122.634 30.4716C122.267 30.2457 121.837 30.1328 121.343 30.1328C120.806 30.1328 120.337 30.2649 119.936 30.5291C119.54 30.7891 119.233 31.13 119.016 31.5518C118.803 31.9695 118.696 32.4233 118.696 32.9134V34.032C118.696 34.6882 118.811 35.2464 119.042 35.7067C119.276 36.1669 119.602 36.5185 120.019 36.7614C120.437 37 120.925 37.1193 121.483 37.1193C121.845 37.1193 122.176 37.0682 122.474 36.9659C122.772 36.8594 123.03 36.7017 123.247 36.4929C123.465 36.2841 123.631 36.0263 123.746 35.7195L125.555 36.0455C125.41 36.5781 125.15 37.0447 124.775 37.4453C124.404 37.8416 123.938 38.1506 123.375 38.3722C122.817 38.5895 122.18 38.6982 121.464 38.6982ZM129.908 38.5L127.019 28.6818H128.994L130.918 35.892H131.014L132.944 28.6818H134.919L136.837 35.8601H136.933L138.844 28.6818H140.819L137.936 38.5H135.987L133.992 31.4112H133.845L131.851 38.5H129.908ZM143.892 38.6214C143.543 38.6214 143.242 38.4979 142.991 38.2507C142.739 37.9993 142.614 37.6967 142.614 37.343C142.614 36.9936 142.739 36.6953 142.991 36.4482C143.242 36.1967 143.543 36.071 143.892 36.071C144.242 36.071 144.542 36.1967 144.793 36.4482C145.045 36.6953 145.171 36.9936 145.171 37.343C145.171 37.5774 145.111 37.7926 144.992 37.9886C144.877 38.1804 144.723 38.3338 144.531 38.4489C144.34 38.5639 144.127 38.6214 143.892 38.6214ZM143.892 31.4751C143.543 31.4751 143.242 31.3494 142.991 31.098C142.739 30.8466 142.614 30.5462 142.614 30.1967C142.614 29.8473 142.739 29.549 142.991 29.3018C143.242 29.0504 143.543 28.9247 143.892 28.9247C144.242 28.9247 144.542 29.0504 144.793 29.3018C145.045 29.549 145.171 29.8473 145.171 30.1967C145.171 30.4311 145.111 30.6463 144.992 30.8423C144.877 31.0341 144.723 31.1875 144.531 31.3026C144.34 31.4176 144.127 31.4751 143.892 31.4751ZM153.754 38.5H151.657L156.368 25.4091H158.65L163.361 38.5H161.264L157.563 27.7869H157.461L153.754 38.5ZM154.105 33.3736H160.906V35.0355H154.105V33.3736ZM167.226 25.4091V38.5H165.251V25.4091H167.226ZM174.866 38.5V25.4091H179.533C180.551 25.4091 181.395 25.5945 182.064 25.9652C182.733 26.3359 183.234 26.843 183.566 27.4865C183.898 28.1257 184.065 28.8459 184.065 29.647C184.065 30.4524 183.896 31.1768 183.56 31.8203C183.227 32.4595 182.724 32.9666 182.051 33.3416C181.382 33.7124 180.54 33.8977 179.526 33.8977H176.317V32.223H179.347C179.991 32.223 180.513 32.1122 180.913 31.8906C181.314 31.6648 181.608 31.358 181.795 30.9702C181.983 30.5824 182.077 30.1413 182.077 29.647C182.077 29.1527 181.983 28.7138 181.795 28.3303C181.608 27.9467 181.312 27.6463 180.907 27.429C180.506 27.2116 179.978 27.103 179.322 27.103H176.842V38.5H174.866ZM186.227 38.5V28.6818H188.074V30.2415H188.176C188.355 29.7131 188.671 29.2976 189.122 28.995C189.578 28.6882 190.094 28.5348 190.669 28.5348C190.788 28.5348 190.929 28.5391 191.091 28.5476C191.257 28.5561 191.387 28.5668 191.481 28.5795V30.4077C191.404 30.3864 191.268 30.3629 191.072 30.3374C190.876 30.3075 190.68 30.2926 190.484 30.2926C190.032 30.2926 189.629 30.3885 189.276 30.5803C188.926 30.7678 188.649 31.0298 188.445 31.3665C188.24 31.6989 188.138 32.0781 188.138 32.5043V38.5H186.227ZM197.015 38.6982C196.048 38.6982 195.214 38.4915 194.516 38.0781C193.821 37.6605 193.284 37.0746 192.905 36.3203C192.53 35.5618 192.342 34.6733 192.342 33.6548C192.342 32.6491 192.53 31.7628 192.905 30.9957C193.284 30.2287 193.812 29.63 194.49 29.1996C195.172 28.7692 195.969 28.554 196.881 28.554C197.435 28.554 197.972 28.6456 198.491 28.8288C199.011 29.0121 199.478 29.2997 199.891 29.6918C200.305 30.0838 200.631 30.593 200.869 31.2195C201.108 31.8416 201.227 32.598 201.227 33.4886V34.1662H193.423V32.7344H199.354C199.354 32.2315 199.252 31.7862 199.048 31.3984C198.843 31.0064 198.555 30.6974 198.185 30.4716C197.818 30.2457 197.388 30.1328 196.893 30.1328C196.356 30.1328 195.888 30.2649 195.487 30.5291C195.091 30.7891 194.784 31.13 194.567 31.5518C194.354 31.9695 194.247 32.4233 194.247 32.9134V34.032C194.247 34.6882 194.362 35.2464 194.592 35.7067C194.827 36.1669 195.153 36.5185 195.57 36.7614C195.988 37 196.476 37.1193 197.034 37.1193C197.396 37.1193 197.727 37.0682 198.025 36.9659C198.323 36.8594 198.581 36.7017 198.798 36.4929C199.016 36.2841 199.182 36.0263 199.297 35.7195L201.106 36.0455C200.961 36.5781 200.701 37.0447 200.326 37.4453C199.955 37.8416 199.489 38.1506 198.926 38.3722C198.368 38.5895 197.731 38.6982 197.015 38.6982ZM207.023 38.6918C206.231 38.6918 205.523 38.4893 204.901 38.0845C204.283 37.6754 203.797 37.0937 203.444 36.3395C203.094 35.581 202.92 34.6712 202.92 33.6101C202.92 32.549 203.096 31.6413 203.45 30.8871C203.808 30.1328 204.298 29.5554 204.92 29.1548C205.542 28.7543 206.248 28.554 207.036 28.554C207.645 28.554 208.135 28.6562 208.506 28.8608C208.881 29.0611 209.171 29.2955 209.375 29.5639C209.584 29.8324 209.746 30.0689 209.861 30.2734H209.976V25.4091H211.888V38.5H210.021V36.9723H209.861C209.746 37.1811 209.58 37.4197 209.363 37.6882C209.15 37.9567 208.856 38.1911 208.481 38.3913C208.106 38.5916 207.62 38.6918 207.023 38.6918ZM207.445 37.0618C207.995 37.0618 208.459 36.9169 208.839 36.6271C209.222 36.3331 209.512 35.9261 209.708 35.4062C209.908 34.8864 210.008 34.2812 210.008 33.5909C210.008 32.9091 209.91 32.3125 209.714 31.8011C209.518 31.2898 209.231 30.8913 208.851 30.6058C208.472 30.3203 208.003 30.1776 207.445 30.1776C206.87 30.1776 206.39 30.3267 206.007 30.625C205.623 30.9233 205.334 31.3303 205.138 31.8459C204.946 32.3615 204.85 32.9432 204.85 33.5909C204.85 34.2472 204.948 34.8374 205.144 35.3615C205.34 35.8857 205.63 36.3011 206.013 36.608C206.401 36.9105 206.878 37.0618 207.445 37.0618ZM214.615 38.5V28.6818H216.527V38.5H214.615ZM215.581 27.1669C215.248 27.1669 214.963 27.0561 214.724 26.8345C214.49 26.6087 214.372 26.3402 214.372 26.0291C214.372 25.7138 214.49 25.4453 214.724 25.2237C214.963 24.9979 215.248 24.8849 215.581 24.8849C215.913 24.8849 216.196 24.9979 216.431 25.2237C216.669 25.4453 216.789 25.7138 216.789 26.0291C216.789 26.3402 216.669 26.6087 216.431 26.8345C216.196 27.0561 215.913 27.1669 215.581 27.1669ZM223.233 38.6982C222.283 38.6982 221.465 38.483 220.779 38.0526C220.097 37.6179 219.573 37.0192 219.206 36.2564C218.84 35.4936 218.657 34.62 218.657 33.6357C218.657 32.6385 218.844 31.7585 219.219 30.9957C219.594 30.2287 220.123 29.63 220.804 29.1996C221.486 28.7692 222.29 28.554 223.214 28.554C223.96 28.554 224.625 28.6925 225.209 28.9695C225.792 29.2422 226.263 29.6257 226.621 30.12C226.983 30.6143 227.199 31.1918 227.267 31.8523H225.407C225.304 31.392 225.07 30.9957 224.704 30.6634C224.341 30.331 223.856 30.1648 223.246 30.1648C222.714 30.1648 222.247 30.3054 221.846 30.5866C221.45 30.8636 221.141 31.2599 220.92 31.7756C220.698 32.2869 220.587 32.892 220.587 33.5909C220.587 34.3068 220.696 34.9247 220.913 35.4446C221.13 35.9645 221.437 36.3672 221.834 36.6527C222.234 36.9382 222.705 37.081 223.246 37.081C223.608 37.081 223.937 37.0149 224.231 36.8828C224.529 36.7464 224.778 36.5526 224.978 36.3011C225.183 36.0497 225.326 35.7472 225.407 35.3935H227.267C227.199 36.0284 226.992 36.5952 226.647 37.0938C226.302 37.5923 225.839 37.9844 225.26 38.2699C224.684 38.5554 224.009 38.6982 223.233 38.6982ZM233.894 28.6818V30.2159H228.531V28.6818H233.894ZM229.969 26.3295H231.88V35.6172C231.88 35.9879 231.936 36.267 232.046 36.4545C232.157 36.6378 232.3 36.7635 232.475 36.8317C232.654 36.8956 232.848 36.9276 233.056 36.9276C233.21 36.9276 233.344 36.9169 233.459 36.8956C233.574 36.8743 233.664 36.8572 233.728 36.8445L234.073 38.4233C233.962 38.4659 233.804 38.5085 233.6 38.5511C233.395 38.598 233.14 38.6236 232.833 38.6278C232.33 38.6364 231.861 38.5469 231.426 38.3594C230.992 38.1719 230.64 37.8821 230.372 37.4901C230.103 37.098 229.969 36.6058 229.969 36.0135V26.3295ZM236.008 38.5V28.6818H237.919V38.5H236.008ZM236.973 27.1669C236.641 27.1669 236.355 27.0561 236.117 26.8345C235.882 26.6087 235.765 26.3402 235.765 26.0291C235.765 25.7138 235.882 25.4453 236.117 25.2237C236.355 24.9979 236.641 24.8849 236.973 24.8849C237.306 24.8849 237.589 24.9979 237.823 25.2237C238.062 25.4453 238.181 25.7138 238.181 26.0291C238.181 26.3402 238.062 26.6087 237.823 26.8345C237.589 27.0561 237.306 27.1669 236.973 27.1669ZM248.89 28.6818L245.329 38.5H243.284L239.717 28.6818H241.769L244.255 36.2372H244.358L246.838 28.6818H248.89ZM254.583 38.6982C253.616 38.6982 252.783 38.4915 252.084 38.0781C251.389 37.6605 250.852 37.0746 250.473 36.3203C250.098 35.5618 249.911 34.6733 249.911 33.6548C249.911 32.6491 250.098 31.7628 250.473 30.9957C250.852 30.2287 251.381 29.63 252.058 29.1996C252.74 28.7692 253.537 28.554 254.449 28.554C255.003 28.554 255.54 28.6456 256.06 28.8288C256.58 29.0121 257.046 29.2997 257.46 29.6918C257.873 30.0838 258.199 30.593 258.438 31.2195C258.676 31.8416 258.796 32.598 258.796 33.4886V34.1662H250.991V32.7344H256.923C256.923 32.2315 256.82 31.7862 256.616 31.3984C256.411 31.0064 256.124 30.6974 255.753 30.4716C255.386 30.2457 254.956 30.1328 254.462 30.1328C253.925 30.1328 253.456 30.2649 253.056 30.5291C252.659 30.7891 252.352 31.13 252.135 31.5518C251.922 31.9695 251.815 32.4233 251.815 32.9134V34.032C251.815 34.6882 251.931 35.2464 252.161 35.7067C252.395 36.1669 252.721 36.5185 253.139 36.7614C253.556 37 254.044 37.1193 254.602 37.1193C254.965 37.1193 255.295 37.0682 255.593 36.9659C255.891 36.8594 256.149 36.7017 256.367 36.4929C256.584 36.2841 256.75 36.0263 256.865 35.7195L258.674 36.0455C258.529 36.5781 258.269 37.0447 257.894 37.4453C257.524 37.8416 257.057 38.1506 256.494 38.3722C255.936 38.5895 255.299 38.6982 254.583 38.6982ZM266.939 38.5H264.842L269.553 25.4091H271.835L276.546 38.5H274.45L270.749 27.7869H270.646L266.939 38.5ZM267.291 33.3736H274.092V35.0355H267.291V33.3736ZM280.195 32.6705V38.5H278.283V28.6818H280.118V30.2798H280.239C280.465 29.7599 280.819 29.3423 281.3 29.027C281.786 28.7116 282.398 28.554 283.135 28.554C283.804 28.554 284.39 28.6946 284.893 28.9759C285.396 29.2528 285.785 29.6662 286.062 30.2159C286.339 30.7656 286.478 31.4453 286.478 32.255V38.5H284.567V32.4851C284.567 31.7734 284.381 31.2173 284.011 30.8168C283.64 30.4119 283.131 30.2095 282.483 30.2095C282.04 30.2095 281.646 30.3054 281.3 30.4972C280.959 30.6889 280.689 30.9702 280.489 31.3409C280.293 31.7074 280.195 32.1506 280.195 32.6705ZM291.898 38.7173C291.276 38.7173 290.714 38.6023 290.211 38.3722C289.708 38.1378 289.31 37.799 289.016 37.3558C288.726 36.9126 288.581 36.3693 288.581 35.7259C288.581 35.1719 288.687 34.7159 288.901 34.358C289.114 34 289.401 33.7166 289.763 33.5078C290.126 33.299 290.53 33.1413 290.978 33.0348C291.425 32.9283 291.881 32.8473 292.346 32.7919C292.934 32.7237 293.411 32.6683 293.778 32.6257C294.144 32.5788 294.41 32.5043 294.577 32.402C294.743 32.2997 294.826 32.1335 294.826 31.9034V31.8587C294.826 31.3004 294.668 30.8679 294.353 30.5611C294.042 30.2543 293.577 30.1009 292.959 30.1009C292.316 30.1009 291.809 30.2436 291.438 30.5291C291.072 30.8104 290.818 31.1236 290.678 31.4688L288.881 31.0597C289.094 30.4631 289.405 29.9815 289.815 29.6151C290.228 29.2443 290.703 28.9759 291.24 28.8097C291.777 28.6392 292.342 28.554 292.934 28.554C293.326 28.554 293.741 28.6009 294.18 28.6946C294.624 28.7841 295.037 28.9503 295.42 29.1932C295.808 29.4361 296.126 29.7834 296.373 30.2351C296.62 30.6825 296.744 31.2642 296.744 31.9801V38.5H294.877V37.1577H294.8C294.677 37.4048 294.491 37.6477 294.244 37.8864C293.997 38.125 293.68 38.3232 293.292 38.4808C292.904 38.6385 292.44 38.7173 291.898 38.7173ZM292.314 37.1832C292.842 37.1832 293.294 37.0788 293.669 36.87C294.048 36.6612 294.336 36.3885 294.532 36.0518C294.732 35.7109 294.832 35.3466 294.832 34.9588V33.6932C294.764 33.7614 294.632 33.8253 294.436 33.8849C294.244 33.9403 294.025 33.9893 293.778 34.032C293.53 34.0703 293.29 34.1065 293.055 34.1406C292.821 34.1705 292.625 34.196 292.467 34.2173C292.097 34.2642 291.758 34.343 291.451 34.4538C291.148 34.5646 290.905 34.7244 290.722 34.9332C290.543 35.1378 290.454 35.4105 290.454 35.7514C290.454 36.2244 290.629 36.5824 290.978 36.8253C291.327 37.0639 291.773 37.1832 292.314 37.1832ZM301.2 25.4091V38.5H299.289V25.4091H301.2ZM304.98 42.1818C304.694 42.1818 304.434 42.1584 304.2 42.1115C303.966 42.0689 303.791 42.022 303.676 41.9709L304.136 40.4048C304.485 40.4986 304.796 40.5391 305.069 40.5263C305.342 40.5135 305.583 40.4112 305.792 40.2195C306.005 40.0277 306.192 39.7145 306.354 39.2798L306.591 38.6278L302.998 28.6818H305.044L307.53 36.3011H307.632L310.119 28.6818H312.171L308.125 39.8104C307.937 40.3217 307.698 40.7543 307.409 41.108C307.119 41.4659 306.774 41.7344 306.373 41.9134C305.973 42.0923 305.508 42.1818 304.98 42.1818ZM321.324 31.0788L319.592 31.3857C319.519 31.1641 319.404 30.9531 319.247 30.7528C319.093 30.5526 318.885 30.3885 318.62 30.2607C318.356 30.1328 318.026 30.0689 317.63 30.0689C317.088 30.0689 316.637 30.1903 316.274 30.4332C315.912 30.6719 315.731 30.9808 315.731 31.3601C315.731 31.6882 315.853 31.9524 316.095 32.1527C316.338 32.353 316.73 32.517 317.272 32.6449L318.831 33.0028C319.735 33.2116 320.408 33.5334 320.851 33.968C321.294 34.4027 321.516 34.9673 321.516 35.6619C321.516 36.25 321.345 36.7741 321.005 37.2344C320.668 37.6903 320.197 38.0483 319.592 38.3082C318.991 38.5682 318.294 38.6982 317.502 38.6982C316.402 38.6982 315.505 38.4638 314.811 37.995C314.116 37.522 313.69 36.8509 313.532 35.9815L315.38 35.7003C315.495 36.1818 315.731 36.5462 316.089 36.7933C316.447 37.0362 316.914 37.1577 317.489 37.1577C318.115 37.1577 318.616 37.0277 318.991 36.7678C319.366 36.5036 319.554 36.1818 319.554 35.8026C319.554 35.4957 319.439 35.2379 319.208 35.0291C318.983 34.8203 318.635 34.6626 318.167 34.5561L316.505 34.1918C315.588 33.983 314.911 33.6506 314.472 33.1946C314.037 32.7386 313.82 32.1612 313.82 31.4624C313.82 30.8828 313.982 30.3757 314.306 29.9411C314.63 29.5064 315.077 29.1676 315.648 28.9247C316.219 28.6776 316.873 28.554 317.61 28.554C318.671 28.554 319.507 28.7841 320.116 29.2443C320.725 29.7003 321.128 30.3118 321.324 31.0788ZM323.617 38.5V28.6818H325.529V38.5H323.617ZM324.583 27.1669C324.25 27.1669 323.965 27.0561 323.726 26.8345C323.492 26.6087 323.374 26.3402 323.374 26.0291C323.374 25.7138 323.492 25.4453 323.726 25.2237C323.965 24.9979 324.25 24.8849 324.583 24.8849C324.915 24.8849 325.198 24.9979 325.433 25.2237C325.671 25.4453 325.791 25.7138 325.791 26.0291C325.791 26.3402 325.671 26.6087 325.433 26.8345C325.198 27.0561 324.915 27.1669 324.583 27.1669ZM335.457 31.0788L333.725 31.3857C333.652 31.1641 333.537 30.9531 333.38 30.7528C333.226 30.5526 333.017 30.3885 332.753 30.2607C332.489 30.1328 332.159 30.0689 331.762 30.0689C331.221 30.0689 330.769 30.1903 330.407 30.4332C330.045 30.6719 329.864 30.9808 329.864 31.3601C329.864 31.6882 329.985 31.9524 330.228 32.1527C330.471 32.353 330.863 32.517 331.404 32.6449L332.964 33.0028C333.867 33.2116 334.541 33.5334 334.984 33.968C335.427 34.4027 335.649 34.9673 335.649 35.6619C335.649 36.25 335.478 36.7741 335.137 37.2344C334.801 37.6903 334.33 38.0483 333.725 38.3082C333.124 38.5682 332.427 38.6982 331.635 38.6982C330.535 38.6982 329.638 38.4638 328.943 37.995C328.249 37.522 327.823 36.8509 327.665 35.9815L329.512 35.7003C329.627 36.1818 329.864 36.5462 330.222 36.7933C330.58 37.0362 331.046 37.1577 331.622 37.1577C332.248 37.1577 332.749 37.0277 333.124 36.7678C333.499 36.5036 333.686 36.1818 333.686 35.8026C333.686 35.4957 333.571 35.2379 333.341 35.0291C333.115 34.8203 332.768 34.6626 332.299 34.5561L330.637 34.1918C329.721 33.983 329.044 33.6506 328.605 33.1946C328.17 32.7386 327.953 32.1612 327.953 31.4624C327.953 30.8828 328.115 30.3757 328.439 29.9411C328.762 29.5064 329.21 29.1676 329.781 28.9247C330.352 28.6776 331.006 28.554 331.743 28.554C332.804 28.554 333.64 28.7841 334.249 29.2443C334.858 29.7003 335.261 30.3118 335.457 31.0788Z" fill="white"/>
<defs>
<filter id="filter0_d_604_170" x="60.4089" y="13.909" width="12.1821" height="12.1819" filterUnits="userSpaceOnUse" color-interpolation-filters="sRGB">
<feFlood flood-opacity="0" result="BackgroundImageFix"/>
<feColorMatrix in="SourceAlpha" type="matrix" values="0 0 0 0 0 0 0 0 0 0 0 0 0 0 0 0 0 0 127 0" result="hardAlpha"/>
<feOffset/>
<feGaussianBlur stdDeviation="1"/>
<feComposite in2="hardAlpha" operator="out"/>
<feColorMatrix type="matrix" values="0 0 0 0 0.0392157 0 0 0 0 0.486275 0 0 0 0 1 0 0 0 0.8 0"/>
<feBlend mode="normal" in2="BackgroundImageFix" result="effect1_dropShadow_604_170"/>
<feBlend mode="normal" in="SourceGraphic" in2="effect1_dropShadow_604_170" result="shape"/>
</filter>
<filter id="filter1_d_604_170" x="62.2271" y="15.9127" width="32.5464" height="32.5457" filterUnits="userSpaceOnUse" color-interpolation-filters="sRGB">
<feFlood flood-opacity="0" result="BackgroundImageFix"/>
<feColorMatrix in="SourceAlpha" type="matrix" values="0 0 0 0 0 0 0 0 0 0 0 0 0 0 0 0 0 0 127 0" result="hardAlpha"/>
<feOffset/>
<feGaussianBlur stdDeviation="2"/>
<feComposite in2="hardAlpha" operator="out"/>
<feColorMatrix type="matrix" values="0 0 0 0 0.0392157 0 0 0 0 0.486275 0 0 0 0 1 0 0 0 0.8 0"/>
<feBlend mode="normal" in2="BackgroundImageFix" result="effect1_dropShadow_604_170"/>
<feBlend mode="normal" in="SourceGraphic" in2="effect1_dropShadow_604_170" result="shape"/>
</filter>
<filter id="filter2_d_604_170" x="60.4089" y="36.909" width="12.1821" height="12.1819" filterUnits="userSpaceOnUse" color-interpolation-filters="sRGB">
<feFlood flood-opacity="0" result="BackgroundImageFix"/>
<feColorMatrix in="SourceAlpha" type="matrix" values="0 0 0 0 0 0 0 0 0 0 0 0 0 0 0 0 0 0 127 0" result="hardAlpha"/>
<feOffset/>
<feGaussianBlur stdDeviation="1"/>
<feComposite in2="hardAlpha" operator="out"/>
<feColorMatrix type="matrix" values="0 0 0 0 0.0392157 0 0 0 0 0.486275 0 0 0 0 1 0 0 0 0.8 0"/>
<feBlend mode="normal" in2="BackgroundImageFix" result="effect1_dropShadow_604_170"/>
<feBlend mode="normal" in="SourceGraphic" in2="effect1_dropShadow_604_170" result="shape"/>
</filter>
<radialGradient id="paint0_radial_604_170" cx="0" cy="0" r="1" gradientUnits="userSpaceOnUse" gradientTransform="translate(200 32) rotate(9.09028) scale(202.544 63.1962)">
<stop offset="0.500291" stop-opacity="0.5"/>
<stop offset="1" stop-color="#0A7CFF"/>
</radialGradient>
<linearGradient id="paint1_linear_604_170" x1="200" y1="0" x2="200" y2="64" gradientUnits="userSpaceOnUse">
<stop stop-color="#0A7CFF"/>
<stop offset="1" stop-color="#0A7CFF" stop-opacity="0"/>
</linearGradient>
<linearGradient id="paint2_linear_604_170" x1="66.5001" y1="16" x2="66.5001" y2="24" gradientUnits="userSpaceOnUse">
<stop offset="0.404167" stop-color="#0A7CFF"/>
<stop offset="1" stop-color="white"/>
</linearGradient>
<linearGradient id="paint3_linear_604_170" x1="63.7733" y1="15.2706" x2="69.958" y2="23.2742" gradientUnits="userSpaceOnUse">
<stop/>
<stop offset="0.0001" stop-color="#0A7CFF"/>
<stop offset="1" stop-color="white"/>
</linearGradient>
<linearGradient id="paint4_linear_604_170" x1="78.5003" y1="20.1855" x2="78.5003" y2="44.1856" gradientUnits="userSpaceOnUse">
<stop offset="0.445833" stop-color="#0A7CFF"/>
<stop offset="1" stop-color="white"/>
</linearGradient>
<linearGradient id="paint5_linear_604_170" x1="70.3199" y1="17.9973" x2="88.8739" y2="42.0082" gradientUnits="userSpaceOnUse">
<stop/>
<stop offset="0.0001" stop-color="#0A7CFF"/>
<stop offset="1" stop-color="white"/>
</linearGradient>
<linearGradient id="paint6_linear_604_170" x1="66.5001" y1="39" x2="66.5001" y2="47" gradientUnits="userSpaceOnUse">
<stop offset="0.404167" stop-color="#0A7CFF"/>
<stop offset="1" stop-color="white"/>
</linearGradient>
<linearGradient id="paint7_linear_604_170" x1="63.7733" y1="38.2706" x2="69.958" y2="46.2742" gradientUnits="userSpaceOnUse">
<stop/>
<stop offset="0.0001" stop-color="#0A7CFF"/>
<stop offset="1" stop-color="white"/>
</linearGradient>
</defs>
</svg>
