<svg width="249" height="104" viewBox="0 0 249 104" fill="none" xmlns="http://www.w3.org/2000/svg">
<g filter="url(#filter0_ddddi_604_102)">
<rect x="24.28" y="8" width="200.5" height="56" rx="28" fill="#0A7CFF"/>
<rect x="24.28" y="8" width="200.5" height="56" rx="28" fill="url(#paint0_radial_604_102)"/>
<path d="M51.28 38C51.28 43 55.3095 47 60.28 47C65.2506 47 69.28 43 69.28 38C69.28 30.9523 63.7612 26.9707 61.3668 25.5749C61.0655 25.3992 60.9148 25.3114 60.7483 25.3314C60.6148 25.3475 60.4664 25.4387 60.3919 25.5505C60.2988 25.6901 60.3095 25.8695 60.3309 26.2282C60.5271 29.5207 61.0652 36 57.7086 36C55.5519 36 55.2041 34.2804 55.148 31.5624C55.1383 31.0936 55.1334 30.8592 55.0046 30.7199C54.9011 30.6079 54.7174 30.5427 54.5664 30.5643C54.3786 30.5913 54.241 30.7537 53.9658 31.0786C52.8309 32.4185 51.28 34.8295 51.28 38Z" fill="white"/>
<path d="M91.9236 33.348C91.8554 32.7429 91.5742 32.2741 91.0798 31.9418C90.5855 31.6051 89.9634 31.4368 89.2134 31.4368C88.6764 31.4368 88.2119 31.522 87.8199 31.6925C87.4278 31.8587 87.1232 32.0888 86.9058 32.3828C86.6928 32.6726 86.5862 33.0028 86.5862 33.3736C86.5862 33.6847 86.6587 33.9531 86.8036 34.179C86.9527 34.4048 87.1466 34.5945 87.3852 34.7479C87.6281 34.897 87.8881 35.0227 88.1651 35.125C88.442 35.223 88.7084 35.304 88.9641 35.3679L90.2425 35.7003C90.6601 35.8026 91.0884 35.9411 91.5273 36.1158C91.9662 36.2905 92.3732 36.5206 92.7482 36.8061C93.1232 37.0916 93.4257 37.4453 93.6558 37.8672C93.8902 38.2891 94.0074 38.794 94.0074 39.3821C94.0074 40.1236 93.8156 40.782 93.4321 41.3572C93.0528 41.9325 92.501 42.3864 91.7766 42.7188C91.0564 43.0511 90.1849 43.2173 89.1622 43.2173C88.1821 43.2173 87.3341 43.0618 86.6182 42.7507C85.9023 42.4396 85.3419 41.9986 84.9371 41.4276C84.5322 40.8523 84.3085 40.1705 84.2659 39.3821H86.2474C86.2858 39.8551 86.4392 40.2493 86.7077 40.5646C86.9804 40.8757 87.3277 41.108 87.7496 41.2614C88.1757 41.4105 88.6423 41.4851 89.1494 41.4851C89.7077 41.4851 90.2041 41.3977 90.6388 41.223C91.0777 41.044 91.4229 40.7969 91.6743 40.4815C91.9257 40.1619 92.0514 39.7891 92.0514 39.3629C92.0514 38.9751 91.9406 38.6577 91.719 38.4105C91.5017 38.1634 91.2055 37.9588 90.8305 37.7969C90.4598 37.6349 90.0401 37.4922 89.5713 37.3686L88.0244 36.9467C86.9761 36.6612 86.1452 36.2415 85.5315 35.6875C84.9222 35.1335 84.6175 34.4006 84.6175 33.4886C84.6175 32.7344 84.822 32.076 85.2311 31.5135C85.6402 30.951 86.1942 30.5142 86.893 30.2031C87.5919 29.8878 88.3803 29.7301 89.2581 29.7301C90.1445 29.7301 90.9264 29.8857 91.604 30.1967C92.2858 30.5078 92.8227 30.9361 93.2148 31.4815C93.6068 32.0227 93.8114 32.6449 93.8284 33.348H91.9236ZM100.797 33.1818V34.7159H95.4344V33.1818H100.797ZM96.8726 30.8295H98.7838V40.1172C98.7838 40.4879 98.8392 40.767 98.95 40.9545C99.0608 41.1378 99.2036 41.2635 99.3783 41.3317C99.5573 41.3956 99.7512 41.4276 99.96 41.4276C100.113 41.4276 100.248 41.4169 100.363 41.3956C100.478 41.3743 100.567 41.3572 100.631 41.3445L100.976 42.9233C100.866 42.9659 100.708 43.0085 100.503 43.0511C100.299 43.098 100.043 43.1236 99.7363 43.1278C99.2334 43.1364 98.7647 43.0469 98.33 42.8594C97.8954 42.6719 97.5438 42.3821 97.2753 41.9901C97.0069 41.598 96.8726 41.1058 96.8726 40.5135V30.8295ZM105.769 43.2173C105.147 43.2173 104.584 43.1023 104.081 42.8722C103.578 42.6378 103.18 42.299 102.886 41.8558C102.596 41.4126 102.451 40.8693 102.451 40.2259C102.451 39.6719 102.558 39.2159 102.771 38.858C102.984 38.5 103.272 38.2166 103.634 38.0078C103.996 37.799 104.401 37.6413 104.848 37.5348C105.296 37.4283 105.752 37.3473 106.216 37.2919C106.804 37.2237 107.282 37.1683 107.648 37.1257C108.014 37.0788 108.281 37.0043 108.447 36.902C108.613 36.7997 108.696 36.6335 108.696 36.4034V36.3587C108.696 35.8004 108.539 35.3679 108.223 35.0611C107.912 34.7543 107.448 34.6009 106.83 34.6009C106.186 34.6009 105.679 34.7436 105.309 35.0291C104.942 35.3104 104.688 35.6236 104.548 35.9688L102.752 35.5597C102.965 34.9631 103.276 34.4815 103.685 34.1151C104.098 33.7443 104.573 33.4759 105.11 33.3097C105.647 33.1392 106.212 33.054 106.804 33.054C107.196 33.054 107.612 33.1009 108.051 33.1946C108.494 33.2841 108.907 33.4503 109.291 33.6932C109.679 33.9361 109.996 34.2834 110.243 34.7351C110.49 35.1825 110.614 35.7642 110.614 36.4801V43H108.747V41.6577H108.671C108.547 41.9048 108.362 42.1477 108.115 42.3864C107.867 42.625 107.55 42.8232 107.162 42.9808C106.774 43.1385 106.31 43.2173 105.769 43.2173ZM106.184 41.6832C106.713 41.6832 107.164 41.5788 107.539 41.37C107.919 41.1612 108.206 40.8885 108.402 40.5518C108.603 40.2109 108.703 39.8466 108.703 39.4588V38.1932C108.635 38.2614 108.502 38.3253 108.306 38.3849C108.115 38.4403 107.895 38.4893 107.648 38.532C107.401 38.5703 107.16 38.6065 106.926 38.6406C106.691 38.6705 106.495 38.696 106.338 38.7173C105.967 38.7642 105.628 38.843 105.321 38.9538C105.019 39.0646 104.776 39.2244 104.593 39.4332C104.414 39.6378 104.324 39.9105 104.324 40.2514C104.324 40.7244 104.499 41.0824 104.848 41.3253C105.198 41.5639 105.643 41.6832 106.184 41.6832ZM113.16 43V33.1818H115.007V34.7415H115.109C115.288 34.2131 115.603 33.7976 116.055 33.495C116.511 33.1882 117.027 33.0348 117.602 33.0348C117.721 33.0348 117.862 33.0391 118.024 33.0476C118.19 33.0561 118.32 33.0668 118.414 33.0795V34.9077C118.337 34.8864 118.201 34.8629 118.005 34.8374C117.809 34.8075 117.613 34.7926 117.417 34.7926C116.965 34.7926 116.562 34.8885 116.209 35.0803C115.859 35.2678 115.582 35.5298 115.378 35.8665C115.173 36.1989 115.071 36.5781 115.071 37.0043V43H113.16ZM125.231 33.1818V34.7159H119.868V33.1818H125.231ZM121.306 30.8295H123.217V40.1172C123.217 40.4879 123.273 40.767 123.384 40.9545C123.494 41.1378 123.637 41.2635 123.812 41.3317C123.991 41.3956 124.185 41.4276 124.394 41.4276C124.547 41.4276 124.681 41.4169 124.796 41.3956C124.911 41.3743 125.001 41.3572 125.065 41.3445L125.41 42.9233C125.299 42.9659 125.141 43.0085 124.937 43.0511C124.732 43.098 124.477 43.1236 124.17 43.1278C123.667 43.1364 123.198 43.0469 122.764 42.8594C122.329 42.6719 121.977 42.3821 121.709 41.9901C121.44 41.598 121.306 41.1058 121.306 40.5135V30.8295ZM131.617 31.6094V29.9091H141.748V31.6094H137.663V43H135.695V31.6094H131.617ZM142.814 43V33.1818H144.661V34.7415H144.763C144.942 34.2131 145.258 33.7976 145.709 33.495C146.165 33.1882 146.681 33.0348 147.256 33.0348C147.376 33.0348 147.516 33.0391 147.678 33.0476C147.844 33.0561 147.974 33.0668 148.068 33.0795V34.9077C147.991 34.8864 147.855 34.8629 147.659 34.8374C147.463 34.8075 147.267 34.7926 147.071 34.7926C146.619 34.7926 146.217 34.8885 145.863 35.0803C145.513 35.2678 145.236 35.5298 145.032 35.8665C144.827 36.1989 144.725 36.5781 144.725 37.0043V43H142.814ZM152.491 43.2173C151.869 43.2173 151.307 43.1023 150.804 42.8722C150.301 42.6378 149.903 42.299 149.609 41.8558C149.319 41.4126 149.174 40.8693 149.174 40.2259C149.174 39.6719 149.28 39.2159 149.494 38.858C149.707 38.5 149.994 38.2166 150.356 38.0078C150.719 37.799 151.124 37.6413 151.571 37.5348C152.018 37.4283 152.474 37.3473 152.939 37.2919C153.527 37.2237 154.004 37.1683 154.371 37.1257C154.737 37.0788 155.003 37.0043 155.17 36.902C155.336 36.7997 155.419 36.6335 155.419 36.4034V36.3587C155.419 35.8004 155.261 35.3679 154.946 35.0611C154.635 34.7543 154.17 34.6009 153.552 34.6009C152.909 34.6009 152.402 34.7436 152.031 35.0291C151.665 35.3104 151.411 35.6236 151.271 35.9688L149.474 35.5597C149.687 34.9631 149.999 34.4815 150.408 34.1151C150.821 33.7443 151.296 33.4759 151.833 33.3097C152.37 33.1392 152.935 33.054 153.527 33.054C153.919 33.054 154.334 33.1009 154.773 33.1946C155.217 33.2841 155.63 33.4503 156.013 33.6932C156.401 33.9361 156.719 34.2834 156.966 34.7351C157.213 35.1825 157.337 35.7642 157.337 36.4801V43H155.47V41.6577H155.393C155.27 41.9048 155.084 42.1477 154.837 42.3864C154.59 42.625 154.273 42.8232 153.885 42.9808C153.497 43.1385 153.033 43.2173 152.491 43.2173ZM152.907 41.6832C153.435 41.6832 153.887 41.5788 154.262 41.37C154.641 41.1612 154.929 40.8885 155.125 40.5518C155.325 40.2109 155.425 39.8466 155.425 39.4588V38.1932C155.357 38.2614 155.225 38.3253 155.029 38.3849C154.837 38.4403 154.618 38.4893 154.371 38.532C154.124 38.5703 153.883 38.6065 153.648 38.6406C153.414 38.6705 153.218 38.696 153.06 38.7173C152.69 38.7642 152.351 38.843 152.044 38.9538C151.741 39.0646 151.499 39.2244 151.315 39.4332C151.136 39.6378 151.047 39.9105 151.047 40.2514C151.047 40.7244 151.222 41.0824 151.571 41.3253C151.92 41.5639 152.366 41.6832 152.907 41.6832ZM163.558 43.1918C162.765 43.1918 162.058 42.9893 161.435 42.5845C160.818 42.1754 160.332 41.5937 159.978 40.8395C159.629 40.081 159.454 39.1712 159.454 38.1101C159.454 37.049 159.631 36.1413 159.984 35.3871C160.342 34.6328 160.832 34.0554 161.455 33.6548C162.077 33.2543 162.782 33.054 163.57 33.054C164.18 33.054 164.67 33.1562 165.041 33.3608C165.416 33.5611 165.705 33.7955 165.91 34.0639C166.119 34.3324 166.281 34.5689 166.396 34.7734H166.511V29.9091H168.422V43H166.556V41.4723H166.396C166.281 41.6811 166.114 41.9197 165.897 42.1882C165.684 42.4567 165.39 42.6911 165.015 42.8913C164.64 43.0916 164.154 43.1918 163.558 43.1918ZM163.98 41.5618C164.529 41.5618 164.994 41.4169 165.373 41.1271C165.757 40.8331 166.046 40.4261 166.242 39.9062C166.443 39.3864 166.543 38.7812 166.543 38.0909C166.543 37.4091 166.445 36.8125 166.249 36.3011C166.053 35.7898 165.765 35.3913 165.386 35.1058C165.007 34.8203 164.538 34.6776 163.98 34.6776C163.404 34.6776 162.925 34.8267 162.541 35.125C162.158 35.4233 161.868 35.8303 161.672 36.3459C161.48 36.8615 161.384 37.4432 161.384 38.0909C161.384 38.7472 161.482 39.3374 161.678 39.8615C161.874 40.3857 162.164 40.8011 162.548 41.108C162.935 41.4105 163.413 41.5618 163.98 41.5618ZM171.15 43V33.1818H173.061V43H171.15ZM172.115 31.6669C171.783 31.6669 171.497 31.5561 171.258 31.3345C171.024 31.1087 170.907 30.8402 170.907 30.5291C170.907 30.2138 171.024 29.9453 171.258 29.7237C171.497 29.4979 171.783 29.3849 172.115 29.3849C172.447 29.3849 172.731 29.4979 172.965 29.7237C173.204 29.9453 173.323 30.2138 173.323 30.5291C173.323 30.8402 173.204 31.1087 172.965 31.3345C172.731 31.5561 172.447 31.6669 172.115 31.6669ZM177.543 37.1705V43H175.632V33.1818H177.467V34.7798H177.588C177.814 34.2599 178.168 33.8423 178.649 33.527C179.135 33.2116 179.747 33.054 180.484 33.054C181.153 33.054 181.739 33.1946 182.242 33.4759C182.744 33.7528 183.134 34.1662 183.411 34.7159C183.688 35.2656 183.827 35.9453 183.827 36.755V43H181.916V36.9851C181.916 36.2734 181.73 35.7173 181.359 35.3168C180.989 34.9119 180.48 34.7095 179.832 34.7095C179.389 34.7095 178.994 34.8054 178.649 34.9972C178.308 35.1889 178.038 35.4702 177.837 35.8409C177.641 36.2074 177.543 36.6506 177.543 37.1705ZM190.507 46.8864C189.727 46.8864 189.056 46.7841 188.493 46.5795C187.935 46.375 187.479 46.1044 187.125 45.7678C186.771 45.4311 186.507 45.0625 186.332 44.6619L187.975 43.9844C188.09 44.1719 188.244 44.37 188.435 44.5788C188.632 44.7919 188.896 44.973 189.228 45.1222C189.565 45.2713 189.997 45.3459 190.526 45.3459C191.25 45.3459 191.849 45.169 192.322 44.8153C192.795 44.4659 193.031 43.9077 193.031 43.1406V41.2102H192.91C192.795 41.419 192.629 41.6513 192.411 41.907C192.198 42.1626 191.904 42.3842 191.529 42.5717C191.154 42.7592 190.666 42.853 190.065 42.853C189.29 42.853 188.591 42.6719 187.969 42.3097C187.351 41.9432 186.861 41.4041 186.499 40.6925C186.141 39.9766 185.962 39.0966 185.962 38.0526C185.962 37.0085 186.139 36.1136 186.492 35.3679C186.85 34.6222 187.34 34.0511 187.962 33.6548C188.585 33.2543 189.29 33.054 190.078 33.054C190.688 33.054 191.18 33.1562 191.555 33.3608C191.93 33.5611 192.222 33.7955 192.431 34.0639C192.644 34.3324 192.808 34.5689 192.923 34.7734H193.063V33.1818H194.936V43.2173C194.936 44.0611 194.74 44.7536 194.348 45.2947C193.956 45.8359 193.426 46.2365 192.757 46.4964C192.092 46.7564 191.342 46.8864 190.507 46.8864ZM190.487 41.2678C191.037 41.2678 191.502 41.1399 191.881 40.8842C192.264 40.6243 192.554 40.2536 192.75 39.772C192.95 39.2862 193.051 38.7045 193.051 38.027C193.051 37.3665 192.953 36.7848 192.757 36.282C192.56 35.7791 192.273 35.3871 191.894 35.1058C191.514 34.8203 191.046 34.6776 190.487 34.6776C189.912 34.6776 189.433 34.8267 189.049 35.125C188.666 35.419 188.376 35.8196 188.18 36.3267C187.988 36.8338 187.892 37.4006 187.892 38.027C187.892 38.6705 187.99 39.2351 188.186 39.7209C188.382 40.2067 188.672 40.5859 189.056 40.8587C189.443 41.1314 189.921 41.2678 190.487 41.2678Z" fill="white"/>
</g>
<defs>
<filter id="filter0_ddddi_604_102" x="0.280029" y="0" width="248.5" height="104" filterUnits="userSpaceOnUse" color-interpolation-filters="sRGB">
<feFlood flood-opacity="0" result="BackgroundImageFix"/>
<feColorMatrix in="SourceAlpha" type="matrix" values="0 0 0 0 0 0 0 0 0 0 0 0 0 0 0 0 0 0 127 0" result="hardAlpha"/>
<feMorphology radius="8" operator="erode" in="SourceAlpha" result="effect1_dropShadow_604_102"/>
<feOffset dy="16"/>
<feGaussianBlur stdDeviation="16"/>
<feComposite in2="hardAlpha" operator="out"/>
<feColorMatrix type="matrix" values="0 0 0 0 0.0392157 0 0 0 0 0.486275 0 0 0 0 1 0 0 0 0.48 0"/>
<feBlend mode="normal" in2="BackgroundImageFix" result="effect1_dropShadow_604_102"/>
<feColorMatrix in="SourceAlpha" type="matrix" values="0 0 0 0 0 0 0 0 0 0 0 0 0 0 0 0 0 0 127 0" result="hardAlpha"/>
<feOffset dy="4"/>
<feGaussianBlur stdDeviation="4"/>
<feComposite in2="hardAlpha" operator="out"/>
<feColorMatrix type="matrix" values="0 0 0 0 0.0392157 0 0 0 0 0.486275 0 0 0 0 1 0 0 0 0.12 0"/>
<feBlend mode="normal" in2="effect1_dropShadow_604_102" result="effect2_dropShadow_604_102"/>
<feColorMatrix in="SourceAlpha" type="matrix" values="0 0 0 0 0 0 0 0 0 0 0 0 0 0 0 0 0 0 127 0" result="hardAlpha"/>
<feOffset dy="2"/>
<feGaussianBlur stdDeviation="3"/>
<feComposite in2="hardAlpha" operator="out"/>
<feColorMatrix type="matrix" values="0 0 0 0 0.0392157 0 0 0 0 0.486275 0 0 0 0 1 0 0 0 0.24 0"/>
<feBlend mode="normal" in2="effect2_dropShadow_604_102" result="effect3_dropShadow_604_102"/>
<feColorMatrix in="SourceAlpha" type="matrix" values="0 0 0 0 0 0 0 0 0 0 0 0 0 0 0 0 0 0 127 0" result="hardAlpha"/>
<feOffset dy="1"/>
<feGaussianBlur stdDeviation="1.5"/>
<feComposite in2="hardAlpha" operator="out"/>
<feColorMatrix type="matrix" values="0 0 0 0 0.0392157 0 0 0 0 0.486275 0 0 0 0 1 0 0 0 0.24 0"/>
<feBlend mode="normal" in2="effect3_dropShadow_604_102" result="effect4_dropShadow_604_102"/>
<feBlend mode="normal" in="SourceGraphic" in2="effect4_dropShadow_604_102" result="shape"/>
<feColorMatrix in="SourceAlpha" type="matrix" values="0 0 0 0 0 0 0 0 0 0 0 0 0 0 0 0 0 0 127 0" result="hardAlpha"/>
<feOffset dx="1" dy="1"/>
<feGaussianBlur stdDeviation="1"/>
<feComposite in2="hardAlpha" operator="arithmetic" k2="-1" k3="1"/>
<feColorMatrix type="matrix" values="0 0 0 0 1 0 0 0 0 1 0 0 0 0 1 0 0 0 0.24 0"/>
<feBlend mode="normal" in2="shape" result="effect5_innerShadow_604_102"/>
</filter>
<radialGradient id="paint0_radial_604_102" cx="0" cy="0" r="1" gradientUnits="userSpaceOnUse" gradientTransform="translate(124.53 36) rotate(15.6051) scale(104.087 53.9358)">
<stop stop-color="white" stop-opacity="0.12"/>
<stop offset="1" stop-opacity="0"/>
</radialGradient>
</defs>
</svg>
