<svg width="680" height="36" viewBox="0 0 680 36" fill="none" xmlns="http://www.w3.org/2000/svg">
<path d="M16.5 35.25L6 25.5L24 7.5L33.75 16.5L16.5 35.25Z" fill="url(#paint0_linear_604_180)"/>
<path d="M6 25.5L24 7.5" stroke="#0A7CFF" stroke-width="2.25" stroke-linecap="round"/>
<path d="M45.4382 25V11.9091H53.5561V13.6094H47.4134V17.598H52.9744V19.2919H47.4134V25H45.4382ZM58.6538 25.2173C58.0316 25.2173 57.4691 25.1023 56.9663 24.8722C56.4634 24.6378 56.065 24.299 55.771 23.8558C55.4812 23.4126 55.3363 22.8693 55.3363 22.2259C55.3363 21.6719 55.4428 21.2159 55.6559 20.858C55.869 20.5 56.1566 20.2166 56.5188 20.0078C56.881 19.799 57.2859 19.6413 57.7333 19.5348C58.1808 19.4283 58.6367 19.3473 59.1012 19.2919C59.6893 19.2237 60.1665 19.1683 60.533 19.1257C60.8995 19.0788 61.1658 19.0043 61.332 18.902C61.4982 18.7997 61.5813 18.6335 61.5813 18.4034V18.3587C61.5813 17.8004 61.4237 17.3679 61.1083 17.0611C60.7972 16.7543 60.3327 16.6009 59.7148 16.6009C59.0714 16.6009 58.5643 16.7436 58.1935 17.0291C57.8271 17.3104 57.5735 17.6236 57.4329 17.9688L55.6367 17.5597C55.8498 16.9631 56.1609 16.4815 56.57 16.1151C56.9833 15.7443 57.4585 15.4759 57.9954 15.3097C58.5323 15.1392 59.0969 15.054 59.6893 15.054C60.0813 15.054 60.4968 15.1009 60.9357 15.1946C61.3789 15.2841 61.7923 15.4503 62.1758 15.6932C62.5636 15.9361 62.881 16.2834 63.1282 16.7351C63.3754 17.1825 63.4989 17.7642 63.4989 18.4801V25H61.6325V23.6577H61.5558C61.4322 23.9048 61.2468 24.1477 60.9996 24.3864C60.7525 24.625 60.435 24.8232 60.0472 24.9808C59.6594 25.1385 59.195 25.2173 58.6538 25.2173ZM59.0692 23.6832C59.5977 23.6832 60.0494 23.5788 60.4244 23.37C60.8036 23.1612 61.0913 22.8885 61.2873 22.5518C61.4876 22.2109 61.5877 21.8466 61.5877 21.4588V20.1932C61.5195 20.2614 61.3874 20.3253 61.1914 20.3849C60.9996 20.4403 60.7802 20.4893 60.533 20.532C60.2859 20.5703 60.0451 20.6065 59.8107 20.6406C59.5763 20.6705 59.3803 20.696 59.2227 20.7173C58.8519 20.7642 58.5131 20.843 58.2063 20.9538C57.9038 21.0646 57.6609 21.2244 57.4776 21.4332C57.2987 21.6378 57.2092 21.9105 57.2092 22.2514C57.2092 22.7244 57.3839 23.0824 57.7333 23.3253C58.0827 23.5639 58.5281 23.6832 59.0692 23.6832ZM73.4018 17.5788L71.6696 17.8857C71.5971 17.6641 71.4821 17.4531 71.3244 17.2528C71.171 17.0526 70.9622 16.8885 70.698 16.7607C70.4338 16.6328 70.1035 16.5689 69.7072 16.5689C69.166 16.5689 68.7143 16.6903 68.3521 16.9332C67.9899 17.1719 67.8088 17.4808 67.8088 17.8601C67.8088 18.1882 67.9302 18.4524 68.1731 18.6527C68.416 18.853 68.8081 19.017 69.3493 19.1449L70.9089 19.5028C71.8123 19.7116 72.4856 20.0334 72.9288 20.468C73.372 20.9027 73.5936 21.4673 73.5936 22.1619C73.5936 22.75 73.4231 23.2741 73.0822 23.7344C72.7456 24.1903 72.2747 24.5483 71.6696 24.8082C71.0687 25.0682 70.372 25.1982 69.5794 25.1982C68.4799 25.1982 67.5829 24.9638 66.8883 24.495C66.1937 24.022 65.7676 23.3509 65.6099 22.4815L67.4572 22.2003C67.5723 22.6818 67.8088 23.0462 68.1667 23.2933C68.5247 23.5362 68.9913 23.6577 69.5666 23.6577C70.193 23.6577 70.6937 23.5277 71.0687 23.2678C71.4437 23.0036 71.6312 22.6818 71.6312 22.3026C71.6312 21.9957 71.5162 21.7379 71.286 21.5291C71.0602 21.3203 70.7129 21.1626 70.2441 21.0561L68.5822 20.6918C67.666 20.483 66.9885 20.1506 66.5495 19.6946C66.1149 19.2386 65.8975 18.6612 65.8975 17.9624C65.8975 17.3828 66.0595 16.8757 66.3833 16.4411C66.7072 16.0064 67.1547 15.6676 67.7257 15.4247C68.2967 15.1776 68.9508 15.054 69.688 15.054C70.7491 15.054 71.5843 15.2841 72.1937 15.7443C72.8031 16.2003 73.2058 16.8118 73.4018 17.5788ZM80.2781 15.1818V16.7159H74.9151V15.1818H80.2781ZM76.3533 12.8295H78.2646V22.1172C78.2646 22.4879 78.32 22.767 78.4308 22.9545C78.5415 23.1378 78.6843 23.2635 78.859 23.3317C79.038 23.3956 79.2319 23.4276 79.4407 23.4276C79.5941 23.4276 79.7283 23.4169 79.8434 23.3956C79.9585 23.3743 80.0479 23.3572 80.1119 23.3445L80.457 24.9233C80.3462 24.9659 80.1886 25.0085 79.984 25.0511C79.7795 25.098 79.5238 25.1236 79.217 25.1278C78.7141 25.1364 78.2454 25.0469 77.8107 24.8594C77.3761 24.6719 77.0245 24.3821 76.756 23.9901C76.4876 23.598 76.3533 23.1058 76.3533 22.5135V12.8295ZM86.6637 13.6094V11.9091H96.7951V13.6094H92.7106V25H90.7418V13.6094H86.6637ZM97.861 25V15.1818H99.7083V16.7415H99.8105C99.9895 16.2131 100.305 15.7976 100.757 15.495C101.213 15.1882 101.728 15.0348 102.303 15.0348C102.423 15.0348 102.563 15.0391 102.725 15.0476C102.892 15.0561 103.021 15.0668 103.115 15.0795V16.9077C103.039 16.8864 102.902 16.8629 102.706 16.8374C102.51 16.8075 102.314 16.7926 102.118 16.7926C101.666 16.7926 101.264 16.8885 100.91 17.0803C100.561 17.2678 100.284 17.5298 100.079 17.8665C99.8745 18.1989 99.7722 18.5781 99.7722 19.0043V25H97.861ZM107.539 25.2173C106.916 25.2173 106.354 25.1023 105.851 24.8722C105.348 24.6378 104.95 24.299 104.656 23.8558C104.366 23.4126 104.221 22.8693 104.221 22.2259C104.221 21.6719 104.328 21.2159 104.541 20.858C104.754 20.5 105.041 20.2166 105.404 20.0078C105.766 19.799 106.171 19.6413 106.618 19.5348C107.066 19.4283 107.521 19.3473 107.986 19.2919C108.574 19.2237 109.051 19.1683 109.418 19.1257C109.784 19.0788 110.051 19.0043 110.217 18.902C110.383 18.7997 110.466 18.6335 110.466 18.4034V18.3587C110.466 17.8004 110.308 17.3679 109.993 17.0611C109.682 16.7543 109.218 16.6009 108.6 16.6009C107.956 16.6009 107.449 16.7436 107.078 17.0291C106.712 17.3104 106.458 17.6236 106.318 17.9688L104.521 17.5597C104.735 16.9631 105.046 16.4815 105.455 16.1151C105.868 15.7443 106.343 15.4759 106.88 15.3097C107.417 15.1392 107.982 15.054 108.574 15.054C108.966 15.054 109.382 15.1009 109.82 15.1946C110.264 15.2841 110.677 15.4503 111.061 15.6932C111.448 15.9361 111.766 16.2834 112.013 16.7351C112.26 17.1825 112.384 17.7642 112.384 18.4801V25H110.517V23.6577H110.441C110.317 23.9048 110.132 24.1477 109.884 24.3864C109.637 24.625 109.32 24.8232 108.932 24.9808C108.544 25.1385 108.08 25.2173 107.539 25.2173ZM107.954 23.6832C108.482 23.6832 108.934 23.5788 109.309 23.37C109.688 23.1612 109.976 22.8885 110.172 22.5518C110.372 22.2109 110.472 21.8466 110.472 21.4588V20.1932C110.404 20.2614 110.272 20.3253 110.076 20.3849C109.884 20.4403 109.665 20.4893 109.418 20.532C109.171 20.5703 108.93 20.6065 108.695 20.6406C108.461 20.6705 108.265 20.696 108.107 20.7173C107.737 20.7642 107.398 20.843 107.091 20.9538C106.789 21.0646 106.546 21.2244 106.362 21.4332C106.183 21.6378 106.094 21.9105 106.094 22.2514C106.094 22.7244 106.269 23.0824 106.618 23.3253C106.968 23.5639 107.413 23.6832 107.954 23.6832ZM118.605 25.1918C117.812 25.1918 117.105 24.9893 116.483 24.5845C115.865 24.1754 115.379 23.5937 115.025 22.8395C114.676 22.081 114.501 21.1712 114.501 20.1101C114.501 19.049 114.678 18.1413 115.032 17.3871C115.39 16.6328 115.88 16.0554 116.502 15.6548C117.124 15.2543 117.829 15.054 118.618 15.054C119.227 15.054 119.717 15.1562 120.088 15.3608C120.463 15.5611 120.752 15.7955 120.957 16.0639C121.166 16.3324 121.328 16.5689 121.443 16.7734H121.558V11.9091H123.469V25H121.603V23.4723H121.443C121.328 23.6811 121.162 23.9197 120.944 24.1882C120.731 24.4567 120.437 24.6911 120.062 24.8913C119.687 25.0916 119.201 25.1918 118.605 25.1918ZM119.027 23.5618C119.576 23.5618 120.041 23.4169 120.42 23.1271C120.804 22.8331 121.093 22.4261 121.289 21.9062C121.49 21.3864 121.59 20.7812 121.59 20.0909C121.59 19.4091 121.492 18.8125 121.296 18.3011C121.1 17.7898 120.812 17.3913 120.433 17.1058C120.054 16.8203 119.585 16.6776 119.027 16.6776C118.451 16.6776 117.972 16.8267 117.588 17.125C117.205 17.4233 116.915 17.8303 116.719 18.3459C116.527 18.8615 116.431 19.4432 116.431 20.0909C116.431 20.7472 116.529 21.3374 116.725 21.8615C116.922 22.3857 117.211 22.8011 117.595 23.108C117.983 23.4105 118.46 23.5618 119.027 23.5618ZM126.197 25V15.1818H128.108V25H126.197ZM127.162 13.6669C126.83 13.6669 126.544 13.5561 126.306 13.3345C126.071 13.1087 125.954 12.8402 125.954 12.5291C125.954 12.2138 126.071 11.9453 126.306 11.7237C126.544 11.4979 126.83 11.3849 127.162 11.3849C127.494 11.3849 127.778 11.4979 128.012 11.7237C128.251 11.9453 128.37 12.2138 128.37 12.5291C128.37 12.8402 128.251 13.1087 128.012 13.3345C127.778 13.5561 127.494 13.6669 127.162 13.6669ZM132.591 19.1705V25H130.679V15.1818H132.514V16.7798H132.635C132.861 16.2599 133.215 15.8423 133.696 15.527C134.182 15.2116 134.794 15.054 135.531 15.054C136.2 15.054 136.786 15.1946 137.289 15.4759C137.792 15.7528 138.181 16.1662 138.458 16.7159C138.735 17.2656 138.874 17.9453 138.874 18.755V25H136.963V18.9851C136.963 18.2734 136.777 17.7173 136.407 17.3168C136.036 16.9119 135.527 16.7095 134.879 16.7095C134.436 16.7095 134.042 16.8054 133.696 16.9972C133.355 17.1889 133.085 17.4702 132.885 17.8409C132.689 18.2074 132.591 18.6506 132.591 19.1705ZM145.554 28.8864C144.774 28.8864 144.103 28.7841 143.54 28.5795C142.982 28.375 142.526 28.1044 142.172 27.7678C141.819 27.4311 141.554 27.0625 141.38 26.6619L143.022 25.9844C143.137 26.1719 143.291 26.37 143.483 26.5788C143.679 26.7919 143.943 26.973 144.275 27.1222C144.612 27.2713 145.044 27.3459 145.573 27.3459C146.297 27.3459 146.896 27.169 147.369 26.8153C147.842 26.4659 148.078 25.9077 148.078 25.1406V23.2102H147.957C147.842 23.419 147.676 23.6513 147.458 23.907C147.245 24.1626 146.951 24.3842 146.576 24.5717C146.201 24.7592 145.713 24.853 145.113 24.853C144.337 24.853 143.638 24.6719 143.016 24.3097C142.398 23.9432 141.908 23.4041 141.546 22.6925C141.188 21.9766 141.009 21.0966 141.009 20.0526C141.009 19.0085 141.186 18.1136 141.539 17.3679C141.897 16.6222 142.387 16.0511 143.01 15.6548C143.632 15.2543 144.337 15.054 145.125 15.054C145.735 15.054 146.227 15.1562 146.602 15.3608C146.977 15.5611 147.269 15.7955 147.478 16.0639C147.691 16.3324 147.855 16.5689 147.97 16.7734H148.11V15.1818H149.983V25.2173C149.983 26.0611 149.787 26.7536 149.395 27.2947C149.003 27.8359 148.473 28.2365 147.804 28.4964C147.139 28.7564 146.389 28.8864 145.554 28.8864ZM145.534 23.2678C146.084 23.2678 146.549 23.1399 146.928 22.8842C147.311 22.6243 147.601 22.2536 147.797 21.772C147.998 21.2862 148.098 20.7045 148.098 20.027C148.098 19.3665 148 18.7848 147.804 18.282C147.608 17.7791 147.32 17.3871 146.941 17.1058C146.561 16.8203 146.093 16.6776 145.534 16.6776C144.959 16.6776 144.48 16.8267 144.096 17.125C143.713 17.419 143.423 17.8196 143.227 18.3267C143.035 18.8338 142.939 19.4006 142.939 20.027C142.939 20.6705 143.037 21.2351 143.233 21.7209C143.429 22.2067 143.719 22.5859 144.103 22.8587C144.49 23.1314 144.968 23.2678 145.534 23.2678Z" fill="white"/>
<path d="M203 9C183.632 9 185.022 27 185.022 27H203V9Z" fill="url(#paint1_linear_604_180)"/>
<path d="M185.022 27C185.022 27 183.632 9 203 9" stroke="#0A7CFF" stroke-width="2.25" stroke-linecap="round"/>
<path d="M228.578 15.348C228.51 14.7429 228.229 14.2741 227.734 13.9418C227.24 13.6051 226.618 13.4368 225.868 13.4368C225.331 13.4368 224.866 13.522 224.474 13.6925C224.082 13.8587 223.778 14.0888 223.56 14.3828C223.347 14.6726 223.241 15.0028 223.241 15.3736C223.241 15.6847 223.313 15.9531 223.458 16.179C223.607 16.4048 223.801 16.5945 224.04 16.7479C224.283 16.897 224.543 17.0227 224.82 17.125C225.097 17.223 225.363 17.304 225.619 17.3679L226.897 17.7003C227.315 17.8026 227.743 17.9411 228.182 18.1158C228.621 18.2905 229.028 18.5206 229.403 18.8061C229.778 19.0916 230.08 19.4453 230.31 19.8672C230.545 20.2891 230.662 20.794 230.662 21.3821C230.662 22.1236 230.47 22.782 230.087 23.3572C229.707 23.9325 229.156 24.3864 228.431 24.7188C227.711 25.0511 226.839 25.2173 225.817 25.2173C224.837 25.2173 223.989 25.0618 223.273 24.7507C222.557 24.4396 221.996 23.9986 221.592 23.4276C221.187 22.8523 220.963 22.1705 220.92 21.3821H222.902C222.94 21.8551 223.094 22.2493 223.362 22.5646C223.635 22.8757 223.982 23.108 224.404 23.2614C224.83 23.4105 225.297 23.4851 225.804 23.4851C226.362 23.4851 226.859 23.3977 227.293 23.223C227.732 23.044 228.077 22.7969 228.329 22.4815C228.58 22.1619 228.706 21.7891 228.706 21.3629C228.706 20.9751 228.595 20.6577 228.374 20.4105C228.156 20.1634 227.86 19.9588 227.485 19.7969C227.114 19.6349 226.695 19.4922 226.226 19.3686L224.679 18.9467C223.631 18.6612 222.8 18.2415 222.186 17.6875C221.577 17.1335 221.272 16.4006 221.272 15.4886C221.272 14.7344 221.477 14.076 221.886 13.5135C222.295 12.951 222.849 12.5142 223.548 12.2031C224.246 11.8878 225.035 11.7301 225.913 11.7301C226.799 11.7301 227.581 11.8857 228.259 12.1967C228.94 12.5078 229.477 12.9361 229.869 13.4815C230.261 14.0227 230.466 14.6449 230.483 15.348H228.578ZM237.1 25.1982C236.133 25.1982 235.3 24.9915 234.601 24.5781C233.906 24.1605 233.369 23.5746 232.99 22.8203C232.615 22.0618 232.428 21.1733 232.428 20.1548C232.428 19.1491 232.615 18.2628 232.99 17.4957C233.369 16.7287 233.898 16.13 234.575 15.6996C235.257 15.2692 236.054 15.054 236.966 15.054C237.52 15.054 238.057 15.1456 238.577 15.3288C239.097 15.5121 239.563 15.7997 239.977 16.1918C240.39 16.5838 240.716 17.093 240.955 17.7195C241.193 18.3416 241.313 19.098 241.313 19.9886V20.6662H233.508V19.2344H239.44C239.44 18.7315 239.338 18.2862 239.133 17.8984C238.928 17.5064 238.641 17.1974 238.27 16.9716C237.904 16.7457 237.473 16.6328 236.979 16.6328C236.442 16.6328 235.973 16.7649 235.573 17.0291C235.176 17.2891 234.869 17.63 234.652 18.0518C234.439 18.4695 234.333 18.9233 234.333 19.4134V20.532C234.333 21.1882 234.448 21.7464 234.678 22.2067C234.912 22.6669 235.238 23.0185 235.656 23.2614C236.073 23.5 236.561 23.6193 237.119 23.6193C237.482 23.6193 237.812 23.5682 238.11 23.4659C238.409 23.3594 238.666 23.2017 238.884 22.9929C239.101 22.7841 239.267 22.5263 239.382 22.2195L241.191 22.5455C241.046 23.0781 240.786 23.5447 240.411 23.9453C240.041 24.3416 239.574 24.6506 239.012 24.8722C238.453 25.0895 237.816 25.1982 237.1 25.1982ZM247.569 25.1982C246.619 25.1982 245.8 24.983 245.114 24.5526C244.433 24.1179 243.908 23.5192 243.542 22.7564C243.175 21.9936 242.992 21.12 242.992 20.1357C242.992 19.1385 243.18 18.2585 243.555 17.4957C243.93 16.7287 244.458 16.13 245.14 15.6996C245.822 15.2692 246.625 15.054 247.55 15.054C248.295 15.054 248.96 15.1925 249.544 15.4695C250.128 15.7422 250.599 16.1257 250.957 16.62C251.319 17.1143 251.534 17.6918 251.602 18.3523H249.742C249.64 17.892 249.406 17.4957 249.039 17.1634C248.677 16.831 248.191 16.6648 247.582 16.6648C247.049 16.6648 246.582 16.8054 246.182 17.0866C245.786 17.3636 245.477 17.7599 245.255 18.2756C245.033 18.7869 244.923 19.392 244.923 20.0909C244.923 20.8068 245.031 21.4247 245.249 21.9446C245.466 22.4645 245.773 22.8672 246.169 23.1527C246.57 23.4382 247.04 23.581 247.582 23.581C247.944 23.581 248.272 23.5149 248.566 23.3828C248.864 23.2464 249.114 23.0526 249.314 22.8011C249.518 22.5497 249.661 22.2472 249.742 21.8935H251.602C251.534 22.5284 251.327 23.0952 250.982 23.5938C250.637 24.0923 250.175 24.4844 249.595 24.7699C249.02 25.0554 248.344 25.1982 247.569 25.1982ZM259.866 20.9283V15.1818H261.783V25H259.904V23.2997H259.802C259.576 23.8239 259.214 24.2607 258.715 24.6101C258.221 24.9553 257.605 25.1278 256.868 25.1278C256.237 25.1278 255.679 24.9893 255.193 24.7124C254.711 24.4311 254.332 24.0156 254.055 23.4659C253.782 22.9162 253.646 22.2365 253.646 21.4268V15.1818H255.557V21.1967C255.557 21.8658 255.743 22.3984 256.113 22.7947C256.484 23.1911 256.966 23.3892 257.558 23.3892C257.916 23.3892 258.272 23.2997 258.626 23.1207C258.983 22.9418 259.28 22.6712 259.514 22.3089C259.753 21.9467 259.87 21.4865 259.866 20.9283ZM264.351 25V15.1818H266.199V16.7415H266.301C266.48 16.2131 266.795 15.7976 267.247 15.495C267.703 15.1882 268.218 15.0348 268.794 15.0348C268.913 15.0348 269.054 15.0391 269.216 15.0476C269.382 15.0561 269.512 15.0668 269.605 15.0795V16.9077C269.529 16.8864 269.392 16.8629 269.196 16.8374C269 16.8075 268.804 16.7926 268.608 16.7926C268.157 16.7926 267.754 16.8885 267.4 17.0803C267.051 17.2678 266.774 17.5298 266.569 17.8665C266.365 18.1989 266.262 18.5781 266.262 19.0043V25H264.351ZM275.139 25.1982C274.172 25.1982 273.339 24.9915 272.64 24.5781C271.945 24.1605 271.409 23.5746 271.029 22.8203C270.654 22.0618 270.467 21.1733 270.467 20.1548C270.467 19.1491 270.654 18.2628 271.029 17.4957C271.409 16.7287 271.937 16.13 272.615 15.6996C273.296 15.2692 274.093 15.054 275.005 15.054C275.559 15.054 276.096 15.1456 276.616 15.3288C277.136 15.5121 277.602 15.7997 278.016 16.1918C278.429 16.5838 278.755 17.093 278.994 17.7195C279.232 18.3416 279.352 19.098 279.352 19.9886V20.6662H271.547V19.2344H277.479C277.479 18.7315 277.377 18.2862 277.172 17.8984C276.968 17.5064 276.68 17.1974 276.309 16.9716C275.943 16.7457 275.512 16.6328 275.018 16.6328C274.481 16.6328 274.012 16.7649 273.612 17.0291C273.215 17.2891 272.909 17.63 272.691 18.0518C272.478 18.4695 272.372 18.9233 272.372 19.4134V20.532C272.372 21.1882 272.487 21.7464 272.717 22.2067C272.951 22.6669 273.277 23.0185 273.695 23.2614C274.112 23.5 274.6 23.6193 275.159 23.6193C275.521 23.6193 275.851 23.5682 276.149 23.4659C276.448 23.3594 276.705 23.2017 276.923 22.9929C277.14 22.7841 277.306 22.5263 277.421 22.2195L279.23 22.5455C279.085 23.0781 278.825 23.5447 278.45 23.9453C278.08 24.3416 277.613 24.6506 277.051 24.8722C276.492 25.0895 275.855 25.1982 275.139 25.1982ZM290.046 25.1854C289.168 25.1854 288.411 25.0256 287.776 24.706C287.146 24.3864 286.66 23.9517 286.319 23.402C285.978 22.848 285.808 22.2216 285.808 21.5227C285.808 20.9901 285.919 20.517 286.14 20.1037C286.362 19.6861 286.671 19.3004 287.067 18.9467C287.463 18.593 287.921 18.2372 288.441 17.8793L290.551 16.3899C290.909 16.1555 291.188 15.9084 291.388 15.6484C291.588 15.3842 291.688 15.0582 291.688 14.6705C291.688 14.3636 291.556 14.0696 291.292 13.7884C291.028 13.5071 290.674 13.3665 290.231 13.3665C289.924 13.3665 289.654 13.4411 289.419 13.5902C289.189 13.7393 289.008 13.9311 288.876 14.1655C288.748 14.3956 288.684 14.6385 288.684 14.8942C288.684 15.1925 288.765 15.4929 288.927 15.7955C289.093 16.098 289.306 16.4112 289.566 16.7351C289.826 17.0547 290.099 17.3871 290.384 17.7322L296.463 25H294.303L289.272 19.0874C288.85 18.5888 288.458 18.12 288.096 17.6811C287.734 17.2379 287.44 16.7905 287.214 16.3388C286.992 15.8828 286.882 15.3906 286.882 14.8622C286.882 14.2614 287.018 13.7287 287.291 13.2642C287.568 12.7955 287.953 12.429 288.448 12.1648C288.942 11.9006 289.521 11.7685 290.186 11.7685C290.86 11.7685 291.437 11.9006 291.919 12.1648C292.404 12.4247 292.777 12.772 293.037 13.2067C293.301 13.6371 293.433 14.108 293.433 14.6193C293.433 15.2415 293.278 15.7912 292.967 16.2685C292.66 16.7415 292.236 17.1761 291.695 17.5724L289.068 19.5092C288.556 19.8842 288.2 20.255 288 20.6214C287.804 20.9837 287.706 21.267 287.706 21.4716C287.706 21.8466 287.802 22.1939 287.994 22.5135C288.19 22.8331 288.463 23.0888 288.812 23.2805C289.166 23.4723 289.579 23.5682 290.052 23.5682C290.538 23.5682 291.011 23.4638 291.471 23.255C291.936 23.0419 292.355 22.7372 292.73 22.3409C293.11 21.9446 293.41 21.4695 293.632 20.9155C293.853 20.3615 293.964 19.7415 293.964 19.0554H295.69C295.69 19.8991 295.594 20.6129 295.402 21.1967C295.21 21.7763 294.978 22.2493 294.705 22.6158C294.437 22.978 294.183 23.2614 293.945 23.4659C293.868 23.5341 293.796 23.6023 293.727 23.6705C293.659 23.7386 293.587 23.8068 293.51 23.875C293.067 24.3224 292.53 24.6527 291.899 24.8658C291.273 25.0788 290.655 25.1854 290.046 25.1854ZM302.878 25V11.9091H307.544C308.558 11.9091 309.4 12.0838 310.069 12.4332C310.742 12.7827 311.245 13.2663 311.577 13.8842C311.91 14.4979 312.076 15.2074 312.076 16.0128C312.076 16.8139 311.907 17.5192 311.571 18.1286C311.238 18.7337 310.736 19.2045 310.062 19.5412C309.393 19.8778 308.552 20.0462 307.537 20.0462H304.003V18.3459H307.358C307.998 18.3459 308.518 18.2543 308.918 18.071C309.323 17.8878 309.619 17.6214 309.807 17.272C309.994 16.9226 310.088 16.5028 310.088 16.0128C310.088 15.5185 309.992 15.0902 309.8 14.728C309.613 14.3658 309.317 14.0888 308.912 13.897C308.511 13.701 307.985 13.603 307.333 13.603H304.853V25H302.878ZM309.34 19.0938L312.574 25H310.324L307.154 19.0938H309.34ZM318.434 25.1982C317.467 25.1982 316.634 24.9915 315.935 24.5781C315.24 24.1605 314.703 23.5746 314.324 22.8203C313.949 22.0618 313.762 21.1733 313.762 20.1548C313.762 19.1491 313.949 18.2628 314.324 17.4957C314.703 16.7287 315.232 16.13 315.909 15.6996C316.591 15.2692 317.388 15.054 318.3 15.054C318.854 15.054 319.391 15.1456 319.911 15.3288C320.431 15.5121 320.897 15.7997 321.311 16.1918C321.724 16.5838 322.05 17.093 322.289 17.7195C322.527 18.3416 322.647 19.098 322.647 19.9886V20.6662H314.842V19.2344H320.774C320.774 18.7315 320.672 18.2862 320.467 17.8984C320.262 17.5064 319.975 17.1974 319.604 16.9716C319.238 16.7457 318.807 16.6328 318.313 16.6328C317.776 16.6328 317.307 16.7649 316.907 17.0291C316.51 17.2891 316.203 17.63 315.986 18.0518C315.773 18.4695 315.667 18.9233 315.667 19.4134V20.532C315.667 21.1882 315.782 21.7464 316.012 22.2067C316.246 22.6669 316.572 23.0185 316.99 23.2614C317.407 23.5 317.895 23.6193 318.453 23.6193C318.816 23.6193 319.146 23.5682 319.444 23.4659C319.743 23.3594 320 23.2017 320.218 22.9929C320.435 22.7841 320.601 22.5263 320.716 22.2195L322.525 22.5455C322.38 23.0781 322.12 23.5447 321.745 23.9453C321.375 24.3416 320.908 24.6506 320.346 24.8722C319.787 25.0895 319.15 25.1982 318.434 25.1982ZM326.678 11.9091V25H324.767V11.9091H326.678ZM329.25 25V15.1818H331.161V25H329.25ZM330.215 13.6669C329.882 13.6669 329.597 13.5561 329.358 13.3345C329.124 13.1087 329.007 12.8402 329.007 12.5291C329.007 12.2138 329.124 11.9453 329.358 11.7237C329.597 11.4979 329.882 11.3849 330.215 11.3849C330.547 11.3849 330.831 11.4979 331.065 11.7237C331.304 11.9453 331.423 12.2138 331.423 12.5291C331.423 12.8402 331.304 13.1087 331.065 13.3345C330.831 13.5561 330.547 13.6669 330.215 13.6669ZM336.589 25.2173C335.967 25.2173 335.405 25.1023 334.902 24.8722C334.399 24.6378 334.001 24.299 333.706 23.8558C333.417 23.4126 333.272 22.8693 333.272 22.2259C333.272 21.6719 333.378 21.2159 333.591 20.858C333.805 20.5 334.092 20.2166 334.454 20.0078C334.817 19.799 335.221 19.6413 335.669 19.5348C336.116 19.4283 336.572 19.3473 337.037 19.2919C337.625 19.2237 338.102 19.1683 338.469 19.1257C338.835 19.0788 339.101 19.0043 339.268 18.902C339.434 18.7997 339.517 18.6335 339.517 18.4034V18.3587C339.517 17.8004 339.359 17.3679 339.044 17.0611C338.733 16.7543 338.268 16.6009 337.65 16.6009C337.007 16.6009 336.5 16.7436 336.129 17.0291C335.763 17.3104 335.509 17.6236 335.368 17.9688L333.572 17.5597C333.785 16.9631 334.096 16.4815 334.506 16.1151C334.919 15.7443 335.394 15.4759 335.931 15.3097C336.468 15.1392 337.032 15.054 337.625 15.054C338.017 15.054 338.432 15.1009 338.871 15.1946C339.314 15.2841 339.728 15.4503 340.111 15.6932C340.499 15.9361 340.817 16.2834 341.064 16.7351C341.311 17.1825 341.434 17.7642 341.434 18.4801V25H339.568V23.6577H339.491C339.368 23.9048 339.182 24.1477 338.935 24.3864C338.688 24.625 338.371 24.8232 337.983 24.9808C337.595 25.1385 337.131 25.2173 336.589 25.2173ZM337.005 23.6832C337.533 23.6832 337.985 23.5788 338.36 23.37C338.739 23.1612 339.027 22.8885 339.223 22.5518C339.423 22.2109 339.523 21.8466 339.523 21.4588V20.1932C339.455 20.2614 339.323 20.3253 339.127 20.3849C338.935 20.4403 338.716 20.4893 338.469 20.532C338.221 20.5703 337.981 20.6065 337.746 20.6406C337.512 20.6705 337.316 20.696 337.158 20.7173C336.787 20.7642 336.449 20.843 336.142 20.9538C335.839 21.0646 335.596 21.2244 335.413 21.4332C335.234 21.6378 335.145 21.9105 335.145 22.2514C335.145 22.7244 335.319 23.0824 335.669 23.3253C336.018 23.5639 336.464 23.6832 337.005 23.6832ZM344.134 25V11.9091H346.045V16.7734H346.16C346.271 16.5689 346.43 16.3324 346.639 16.0639C346.848 15.7955 347.138 15.5611 347.509 15.3608C347.879 15.1562 348.369 15.054 348.979 15.054C349.771 15.054 350.479 15.2543 351.101 15.6548C351.723 16.0554 352.211 16.6328 352.565 17.3871C352.923 18.1413 353.102 19.049 353.102 20.1101C353.102 21.1712 352.925 22.081 352.571 22.8395C352.217 23.5937 351.732 24.1754 351.114 24.5845C350.496 24.9893 349.79 25.1918 348.998 25.1918C348.401 25.1918 347.913 25.0916 347.534 24.8913C347.159 24.6911 346.865 24.4567 346.652 24.1882C346.439 23.9197 346.275 23.6811 346.16 23.4723H346V25H344.134ZM346.006 20.0909C346.006 20.7812 346.107 21.3864 346.307 21.9062C346.507 22.4261 346.797 22.8331 347.176 23.1271C347.555 23.4169 348.02 23.5618 348.57 23.5618C349.141 23.5618 349.618 23.4105 350.001 23.108C350.385 22.8011 350.675 22.3857 350.871 21.8615C351.071 21.3374 351.171 20.7472 351.171 20.0909C351.171 19.4432 351.073 18.8615 350.877 18.3459C350.685 17.8303 350.396 17.4233 350.008 17.125C349.624 16.8267 349.145 16.6776 348.57 16.6776C348.016 16.6776 347.547 16.8203 347.163 17.1058C346.784 17.3913 346.496 17.7898 346.3 18.3011C346.104 18.8125 346.006 19.4091 346.006 20.0909ZM357.159 11.9091V25H355.248V11.9091H357.159ZM363.962 25.1982C362.994 25.1982 362.161 24.9915 361.462 24.5781C360.768 24.1605 360.231 23.5746 359.852 22.8203C359.477 22.0618 359.289 21.1733 359.289 20.1548C359.289 19.1491 359.477 18.2628 359.852 17.4957C360.231 16.7287 360.759 16.13 361.437 15.6996C362.119 15.2692 362.915 15.054 363.827 15.054C364.381 15.054 364.918 15.1456 365.438 15.3288C365.958 15.5121 366.425 15.7997 366.838 16.1918C367.251 16.5838 367.577 17.093 367.816 17.7195C368.055 18.3416 368.174 19.098 368.174 19.9886V20.6662H360.369V19.2344H366.301C366.301 18.7315 366.199 18.2862 365.994 17.8984C365.79 17.5064 365.502 17.1974 365.131 16.9716C364.765 16.7457 364.335 16.6328 363.84 16.6328C363.303 16.6328 362.835 16.7649 362.434 17.0291C362.038 17.2891 361.731 17.63 361.513 18.0518C361.3 18.4695 361.194 18.9233 361.194 19.4134V20.532C361.194 21.1882 361.309 21.7464 361.539 22.2067C361.773 22.6669 362.099 23.0185 362.517 23.2614C362.935 23.5 363.423 23.6193 363.981 23.6193C364.343 23.6193 364.673 23.5682 364.972 23.4659C365.27 23.3594 365.528 23.2017 365.745 22.9929C365.962 22.7841 366.129 22.5263 366.244 22.2195L368.053 22.5455C367.908 23.0781 367.648 23.5447 367.273 23.9453C366.902 24.3416 366.435 24.6506 365.873 24.8722C365.315 25.0895 364.678 25.1982 363.962 25.1982Z" fill="white"/>
<path opacity="0.24" d="M412 28.5C417.799 28.5 422.5 23.799 422.5 18C422.5 12.201 417.799 7.5 412 7.5C406.201 7.5 401.5 12.201 401.5 18C401.5 23.799 406.201 28.5 412 28.5Z" fill="#0A7CFF"/>
<path d="M401.5 18C401.5 23.799 406.201 28.5 412 28.5C417.799 28.5 421.45 22.725 421.45 22.725V27.75M422.5 18C422.5 12.201 417.833 7.5 412 7.5C405 7.5 401.5 13.275 401.5 13.275V8.25" stroke="#0A7CFF" stroke-width="2.25" stroke-linecap="round" stroke-linejoin="round"/>
<path d="M450.311 16.1662H448.317C448.24 15.7401 448.097 15.3651 447.888 15.0412C447.68 14.7173 447.424 14.4425 447.121 14.2166C446.819 13.9908 446.48 13.8203 446.105 13.7053C445.734 13.5902 445.34 13.5327 444.923 13.5327C444.168 13.5327 443.493 13.7223 442.896 14.1016C442.304 14.4808 441.835 15.0369 441.49 15.7699C441.149 16.5028 440.979 17.3977 440.979 18.4545C440.979 19.5199 441.149 20.419 441.49 21.152C441.835 21.8849 442.306 22.4389 442.903 22.8139C443.499 23.1889 444.17 23.3764 444.916 23.3764C445.33 23.3764 445.722 23.321 446.092 23.2102C446.467 23.0952 446.806 22.9268 447.109 22.7053C447.411 22.4837 447.667 22.2131 447.876 21.8935C448.089 21.5696 448.236 21.1989 448.317 20.7812L450.311 20.7876C450.205 21.4311 449.998 22.0234 449.691 22.5646C449.388 23.1016 448.999 23.5661 448.521 23.9581C448.048 24.3459 447.507 24.6463 446.898 24.8594C446.288 25.0724 445.624 25.179 444.903 25.179C443.77 25.179 442.76 24.9105 441.874 24.3736C440.987 23.8324 440.288 23.0589 439.777 22.0533C439.27 21.0476 439.016 19.848 439.016 18.4545C439.016 17.0568 439.272 15.8572 439.783 14.8558C440.295 13.8501 440.994 13.0788 441.88 12.5419C442.766 12.0007 443.774 11.7301 444.903 11.7301C445.598 11.7301 446.246 11.8303 446.847 12.0305C447.452 12.2266 447.995 12.5163 448.477 12.8999C448.958 13.2791 449.357 13.7436 449.672 14.2933C449.987 14.8388 450.2 15.4631 450.311 16.1662ZM456.657 25.1982C455.736 25.1982 454.933 24.9872 454.247 24.5653C453.561 24.1435 453.028 23.5533 452.649 22.7947C452.27 22.0362 452.08 21.1499 452.08 20.1357C452.08 19.1172 452.27 18.2266 452.649 17.4638C453.028 16.701 453.561 16.1087 454.247 15.6868C454.933 15.2649 455.736 15.054 456.657 15.054C457.577 15.054 458.381 15.2649 459.067 15.6868C459.753 16.1087 460.285 16.701 460.665 17.4638C461.044 18.2266 461.233 19.1172 461.233 20.1357C461.233 21.1499 461.044 22.0362 460.665 22.7947C460.285 23.5533 459.753 24.1435 459.067 24.5653C458.381 24.9872 457.577 25.1982 456.657 25.1982ZM456.663 23.5938C457.26 23.5938 457.754 23.4361 458.146 23.1207C458.538 22.8054 458.828 22.3857 459.015 21.8615C459.207 21.3374 459.303 20.7599 459.303 20.1293C459.303 19.5028 459.207 18.9276 459.015 18.4034C458.828 17.875 458.538 17.451 458.146 17.1314C457.754 16.8118 457.26 16.652 456.663 16.652C456.062 16.652 455.564 16.8118 455.167 17.1314C454.775 17.451 454.483 17.875 454.292 18.4034C454.104 18.9276 454.01 19.5028 454.01 20.1293C454.01 20.7599 454.104 21.3374 454.292 21.8615C454.483 22.3857 454.775 22.8054 455.167 23.1207C455.564 23.4361 456.062 23.5938 456.663 23.5938ZM465.278 19.1705V25H463.367V15.1818H465.201V16.7798H465.323C465.549 16.2599 465.902 15.8423 466.384 15.527C466.87 15.2116 467.481 15.054 468.218 15.054C468.887 15.054 469.473 15.1946 469.976 15.4759C470.479 15.7528 470.869 16.1662 471.146 16.7159C471.423 17.2656 471.561 17.9453 471.561 18.755V25H469.65V18.9851C469.65 18.2734 469.465 17.7173 469.094 17.3168C468.723 16.9119 468.214 16.7095 467.566 16.7095C467.123 16.7095 466.729 16.8054 466.384 16.9972C466.043 17.1889 465.772 17.4702 465.572 17.8409C465.376 18.2074 465.278 18.6506 465.278 19.1705ZM478.708 15.1818V16.7159H473.345V15.1818H478.708ZM474.783 12.8295H476.694V22.1172C476.694 22.4879 476.75 22.767 476.86 22.9545C476.971 23.1378 477.114 23.2635 477.289 23.3317C477.468 23.3956 477.662 23.4276 477.87 23.4276C478.024 23.4276 478.158 23.4169 478.273 23.3956C478.388 23.3743 478.478 23.3572 478.542 23.3445L478.887 24.9233C478.776 24.9659 478.618 25.0085 478.414 25.0511C478.209 25.098 477.953 25.1236 477.647 25.1278C477.144 25.1364 476.675 25.0469 476.24 24.8594C475.806 24.6719 475.454 24.3821 475.186 23.9901C474.917 23.598 474.783 23.1058 474.783 22.5135V12.8295ZM480.822 25V15.1818H482.733V25H480.822ZM481.787 13.6669C481.455 13.6669 481.169 13.5561 480.931 13.3345C480.696 13.1087 480.579 12.8402 480.579 12.5291C480.579 12.2138 480.696 11.9453 480.931 11.7237C481.169 11.4979 481.455 11.3849 481.787 11.3849C482.119 11.3849 482.403 11.4979 482.637 11.7237C482.876 11.9453 482.995 12.2138 482.995 12.5291C482.995 12.8402 482.876 13.1087 482.637 13.3345C482.403 13.5561 482.119 13.6669 481.787 13.6669ZM487.216 19.1705V25H485.304V15.1818H487.139V16.7798H487.26C487.486 16.2599 487.84 15.8423 488.321 15.527C488.807 15.2116 489.419 15.054 490.156 15.054C490.825 15.054 491.411 15.1946 491.914 15.4759C492.417 15.7528 492.806 16.1662 493.083 16.7159C493.36 17.2656 493.499 17.9453 493.499 18.755V25H491.588V18.9851C491.588 18.2734 491.402 17.7173 491.032 17.3168C490.661 16.9119 490.152 16.7095 489.504 16.7095C489.061 16.7095 488.667 16.8054 488.321 16.9972C487.98 17.1889 487.71 17.4702 487.51 17.8409C487.314 18.2074 487.216 18.6506 487.216 19.1705ZM502.282 20.9283V15.1818H504.199V25H502.32V23.2997H502.218C501.992 23.8239 501.63 24.2607 501.131 24.6101C500.637 24.9553 500.021 25.1278 499.284 25.1278C498.653 25.1278 498.095 24.9893 497.609 24.7124C497.127 24.4311 496.748 24.0156 496.471 23.4659C496.199 22.9162 496.062 22.2365 496.062 21.4268V15.1818H497.973V21.1967C497.973 21.8658 498.159 22.3984 498.529 22.7947C498.9 23.1911 499.382 23.3892 499.974 23.3892C500.332 23.3892 500.688 23.2997 501.042 23.1207C501.4 22.9418 501.696 22.6712 501.93 22.3089C502.169 21.9467 502.286 21.4865 502.282 20.9283ZM510.903 25.1982C509.982 25.1982 509.179 24.9872 508.493 24.5653C507.807 24.1435 507.274 23.5533 506.895 22.7947C506.516 22.0362 506.326 21.1499 506.326 20.1357C506.326 19.1172 506.516 18.2266 506.895 17.4638C507.274 16.701 507.807 16.1087 508.493 15.6868C509.179 15.2649 509.982 15.054 510.903 15.054C511.823 15.054 512.627 15.2649 513.313 15.6868C513.999 16.1087 514.531 16.701 514.911 17.4638C515.29 18.2266 515.48 19.1172 515.48 20.1357C515.48 21.1499 515.29 22.0362 514.911 22.7947C514.531 23.5533 513.999 24.1435 513.313 24.5653C512.627 24.9872 511.823 25.1982 510.903 25.1982ZM510.909 23.5938C511.506 23.5938 512 23.4361 512.392 23.1207C512.784 22.8054 513.074 22.3857 513.262 21.8615C513.453 21.3374 513.549 20.7599 513.549 20.1293C513.549 19.5028 513.453 18.9276 513.262 18.4034C513.074 17.875 512.784 17.451 512.392 17.1314C512 16.8118 511.506 16.652 510.909 16.652C510.308 16.652 509.81 16.8118 509.414 17.1314C509.021 17.451 508.73 17.875 508.538 18.4034C508.35 18.9276 508.257 19.5028 508.257 20.1293C508.257 20.7599 508.35 21.3374 508.538 21.8615C508.73 22.3857 509.021 22.8054 509.414 23.1207C509.81 23.4361 510.308 23.5938 510.909 23.5938ZM523.832 20.9283V15.1818H525.75V25H523.871V23.2997H523.768C523.543 23.8239 523.18 24.2607 522.682 24.6101C522.188 24.9553 521.572 25.1278 520.835 25.1278C520.204 25.1278 519.646 24.9893 519.16 24.7124C518.678 24.4311 518.299 24.0156 518.022 23.4659C517.749 22.9162 517.613 22.2365 517.613 21.4268V15.1818H519.524V21.1967C519.524 21.8658 519.71 22.3984 520.08 22.7947C520.451 23.1911 520.933 23.3892 521.525 23.3892C521.883 23.3892 522.239 23.2997 522.592 23.1207C522.95 22.9418 523.246 22.6712 523.481 22.3089C523.719 21.9467 523.837 21.4865 523.832 20.9283ZM535.675 17.5788L533.943 17.8857C533.871 17.6641 533.756 17.4531 533.598 17.2528C533.444 17.0526 533.236 16.8885 532.971 16.7607C532.707 16.6328 532.377 16.5689 531.981 16.5689C531.439 16.5689 530.988 16.6903 530.626 16.9332C530.263 17.1719 530.082 17.4808 530.082 17.8601C530.082 18.1882 530.204 18.4524 530.447 18.6527C530.689 18.853 531.081 19.017 531.623 19.1449L533.182 19.5028C534.086 19.7116 534.759 20.0334 535.202 20.468C535.645 20.9027 535.867 21.4673 535.867 22.1619C535.867 22.75 535.697 23.2741 535.356 23.7344C535.019 24.1903 534.548 24.5483 533.943 24.8082C533.342 25.0682 532.645 25.1982 531.853 25.1982C530.753 25.1982 529.856 24.9638 529.162 24.495C528.467 24.022 528.041 23.3509 527.883 22.4815L529.731 22.2003C529.846 22.6818 530.082 23.0462 530.44 23.2933C530.798 23.5362 531.265 23.6577 531.84 23.6577C532.466 23.6577 532.967 23.5277 533.342 23.2678C533.717 23.0036 533.905 22.6818 533.905 22.3026C533.905 21.9957 533.79 21.7379 533.559 21.5291C533.334 21.3203 532.986 21.1626 532.518 21.0561L530.856 20.6918C529.939 20.483 529.262 20.1506 528.823 19.6946C528.388 19.2386 528.171 18.6612 528.171 17.9624C528.171 17.3828 528.333 16.8757 528.657 16.4411C528.981 16.0064 529.428 15.6676 529.999 15.4247C530.57 15.1776 531.224 15.054 531.961 15.054C533.023 15.054 533.858 15.2841 534.467 15.7443C535.077 16.2003 535.479 16.8118 535.675 17.5788ZM542.885 11.9091H545.282L549.45 22.0852H549.604L553.771 11.9091H556.168V25H554.289V15.527H554.167L550.307 24.9808H548.747L544.886 15.5206H544.765V25H542.885V11.9091ZM561.744 25.2173C561.121 25.2173 560.559 25.1023 560.056 24.8722C559.553 24.6378 559.155 24.299 558.861 23.8558C558.571 23.4126 558.426 22.8693 558.426 22.2259C558.426 21.6719 558.533 21.2159 558.746 20.858C558.959 20.5 559.246 20.2166 559.609 20.0078C559.971 19.799 560.376 19.6413 560.823 19.5348C561.271 19.4283 561.727 19.3473 562.191 19.2919C562.779 19.2237 563.256 19.1683 563.623 19.1257C563.989 19.0788 564.256 19.0043 564.422 18.902C564.588 18.7997 564.671 18.6335 564.671 18.4034V18.3587C564.671 17.8004 564.513 17.3679 564.198 17.0611C563.887 16.7543 563.423 16.6009 562.805 16.6009C562.161 16.6009 561.654 16.7436 561.283 17.0291C560.917 17.3104 560.663 17.6236 560.523 17.9688L558.727 17.5597C558.94 16.9631 559.251 16.4815 559.66 16.1151C560.073 15.7443 560.548 15.4759 561.085 15.3097C561.622 15.1392 562.187 15.054 562.779 15.054C563.171 15.054 563.587 15.1009 564.026 15.1946C564.469 15.2841 564.882 15.4503 565.266 15.6932C565.653 15.9361 565.971 16.2834 566.218 16.7351C566.465 17.1825 566.589 17.7642 566.589 18.4801V25H564.722V23.6577H564.646C564.522 23.9048 564.337 24.1477 564.089 24.3864C563.842 24.625 563.525 24.8232 563.137 24.9808C562.749 25.1385 562.285 25.2173 561.744 25.2173ZM562.159 23.6832C562.688 23.6832 563.139 23.5788 563.514 23.37C563.893 23.1612 564.181 22.8885 564.377 22.5518C564.577 22.2109 564.678 21.8466 564.678 21.4588V20.1932C564.609 20.2614 564.477 20.3253 564.281 20.3849C564.089 20.4403 563.87 20.4893 563.623 20.532C563.376 20.5703 563.135 20.6065 562.901 20.6406C562.666 20.6705 562.47 20.696 562.312 20.7173C561.942 20.7642 561.603 20.843 561.296 20.9538C560.994 21.0646 560.751 21.2244 560.567 21.4332C560.388 21.6378 560.299 21.9105 560.299 22.2514C560.299 22.7244 560.474 23.0824 560.823 23.3253C561.173 23.5639 561.618 23.6832 562.159 23.6832ZM569.134 25V15.1818H570.982V16.7415H571.084C571.263 16.2131 571.578 15.7976 572.03 15.495C572.486 15.1882 573.002 15.0348 573.577 15.0348C573.696 15.0348 573.837 15.0391 573.999 15.0476C574.165 15.0561 574.295 15.0668 574.389 15.0795V16.9077C574.312 16.8864 574.176 16.8629 573.98 16.8374C573.784 16.8075 573.588 16.7926 573.392 16.7926C572.94 16.7926 572.537 16.8885 572.183 17.0803C571.834 17.2678 571.557 17.5298 571.352 17.8665C571.148 18.1989 571.046 18.5781 571.046 19.0043V25H569.134ZM577.8 21.6697L577.788 19.3366H578.12L582.032 15.1818H584.32L579.859 19.9119H579.558L577.8 21.6697ZM576.043 25V11.9091H577.954V25H576.043ZM582.243 25L578.727 20.3338L580.044 18.9979L584.589 25H582.243ZM589.889 25.1982C588.922 25.1982 588.089 24.9915 587.39 24.5781C586.695 24.1605 586.159 23.5746 585.779 22.8203C585.404 22.0618 585.217 21.1733 585.217 20.1548C585.217 19.1491 585.404 18.2628 585.779 17.4957C586.159 16.7287 586.687 16.13 587.365 15.6996C588.046 15.2692 588.843 15.054 589.755 15.054C590.309 15.054 590.846 15.1456 591.366 15.3288C591.886 15.5121 592.352 15.7997 592.766 16.1918C593.179 16.5838 593.505 17.093 593.744 17.7195C593.982 18.3416 594.102 19.098 594.102 19.9886V20.6662H586.297V19.2344H592.229C592.229 18.7315 592.127 18.2862 591.922 17.8984C591.718 17.5064 591.43 17.1974 591.059 16.9716C590.693 16.7457 590.262 16.6328 589.768 16.6328C589.231 16.6328 588.762 16.7649 588.362 17.0291C587.965 17.2891 587.659 17.63 587.441 18.0518C587.228 18.4695 587.122 18.9233 587.122 19.4134V20.532C587.122 21.1882 587.237 21.7464 587.467 22.2067C587.701 22.6669 588.027 23.0185 588.445 23.2614C588.862 23.5 589.35 23.6193 589.909 23.6193C590.271 23.6193 590.601 23.5682 590.899 23.4659C591.198 23.3594 591.455 23.2017 591.673 22.9929C591.89 22.7841 592.056 22.5263 592.171 22.2195L593.98 22.5455C593.835 23.0781 593.575 23.5447 593.2 23.9453C592.83 24.3416 592.363 24.6506 591.801 24.8722C591.242 25.0895 590.605 25.1982 589.889 25.1982ZM600.805 15.1818V16.7159H595.442V15.1818H600.805ZM596.881 12.8295H598.792V22.1172C598.792 22.4879 598.847 22.767 598.958 22.9545C599.069 23.1378 599.212 23.2635 599.386 23.3317C599.565 23.3956 599.759 23.4276 599.968 23.4276C600.121 23.4276 600.256 23.4169 600.371 23.3956C600.486 23.3743 600.575 23.3572 600.639 23.3445L600.984 24.9233C600.874 24.9659 600.716 25.0085 600.511 25.0511C600.307 25.098 600.051 25.1236 599.744 25.1278C599.241 25.1364 598.773 25.0469 598.338 24.8594C597.903 24.6719 597.552 24.3821 597.283 23.9901C597.015 23.598 596.881 23.1058 596.881 22.5135V12.8295ZM616.255 11.9091H618.237V20.5192C618.237 21.4354 618.021 22.2472 617.591 22.9545C617.161 23.6577 616.555 24.2116 615.776 24.6165C614.996 25.017 614.082 25.2173 613.033 25.2173C611.989 25.2173 611.077 25.017 610.298 24.6165C609.518 24.2116 608.913 23.6577 608.482 22.9545C608.052 22.2472 607.837 21.4354 607.837 20.5192V11.9091H609.812V20.3594C609.812 20.9517 609.942 21.478 610.202 21.9382C610.466 22.3984 610.839 22.7607 611.32 23.0249C611.802 23.2848 612.373 23.4148 613.033 23.4148C613.698 23.4148 614.271 23.2848 614.753 23.0249C615.239 22.7607 615.609 22.3984 615.865 21.9382C616.125 21.478 616.255 20.9517 616.255 20.3594V11.9091ZM620.955 28.6818V15.1818H622.821V16.7734H622.981C623.092 16.5689 623.252 16.3324 623.46 16.0639C623.669 15.7955 623.959 15.5611 624.33 15.3608C624.7 15.1562 625.191 15.054 625.8 15.054C626.593 15.054 627.3 15.2543 627.922 15.6548C628.544 16.0554 629.032 16.6328 629.386 17.3871C629.744 18.1413 629.923 19.049 629.923 20.1101C629.923 21.1712 629.746 22.081 629.392 22.8395C629.039 23.5937 628.553 24.1754 627.935 24.5845C627.317 24.9893 626.612 25.1918 625.819 25.1918C625.222 25.1918 624.735 25.0916 624.355 24.8913C623.98 24.6911 623.686 24.4567 623.473 24.1882C623.26 23.9197 623.096 23.6811 622.981 23.4723H622.866V28.6818H620.955ZM622.828 20.0909C622.828 20.7812 622.928 21.3864 623.128 21.9062C623.328 22.4261 623.618 22.8331 623.997 23.1271C624.377 23.4169 624.841 23.5618 625.391 23.5618C625.962 23.5618 626.439 23.4105 626.823 23.108C627.206 22.8011 627.496 22.3857 627.692 21.8615C627.892 21.3374 627.992 20.7472 627.992 20.0909C627.992 19.4432 627.894 18.8615 627.698 18.3459C627.507 17.8303 627.217 17.4233 626.829 17.125C626.445 16.8267 625.966 16.6776 625.391 16.6776C624.837 16.6776 624.368 16.8203 623.985 17.1058C623.605 17.3913 623.318 17.7898 623.122 18.3011C622.926 18.8125 622.828 19.4091 622.828 20.0909ZM635.74 25.1918C634.947 25.1918 634.24 24.9893 633.617 24.5845C632.999 24.1754 632.514 23.5937 632.16 22.8395C631.811 22.081 631.636 21.1712 631.636 20.1101C631.636 19.049 631.813 18.1413 632.166 17.3871C632.524 16.6328 633.014 16.0554 633.637 15.6548C634.259 15.2543 634.964 15.054 635.752 15.054C636.362 15.054 636.852 15.1562 637.222 15.3608C637.597 15.5611 637.887 15.7955 638.092 16.0639C638.301 16.3324 638.463 16.5689 638.578 16.7734H638.693V11.9091H640.604V25H638.737V23.4723H638.578C638.463 23.6811 638.296 23.9197 638.079 24.1882C637.866 24.4567 637.572 24.6911 637.197 24.8913C636.822 25.0916 636.336 25.1918 635.74 25.1918ZM636.161 23.5618C636.711 23.5618 637.176 23.4169 637.555 23.1271C637.938 22.8331 638.228 22.4261 638.424 21.9062C638.624 21.3864 638.725 20.7812 638.725 20.0909C638.725 19.4091 638.627 18.8125 638.431 18.3011C638.235 17.7898 637.947 17.3913 637.568 17.1058C637.188 16.8203 636.72 16.6776 636.161 16.6776C635.586 16.6776 635.107 16.8267 634.723 17.125C634.34 17.4233 634.05 17.8303 633.854 18.3459C633.662 18.8615 633.566 19.4432 633.566 20.0909C633.566 20.7472 633.664 21.3374 633.86 21.8615C634.056 22.3857 634.346 22.8011 634.73 23.108C635.117 23.4105 635.595 23.5618 636.161 23.5618ZM646.189 25.2173C645.567 25.2173 645.004 25.1023 644.501 24.8722C643.999 24.6378 643.6 24.299 643.306 23.8558C643.016 23.4126 642.871 22.8693 642.871 22.2259C642.871 21.6719 642.978 21.2159 643.191 20.858C643.404 20.5 643.692 20.2166 644.054 20.0078C644.416 19.799 644.821 19.6413 645.268 19.5348C645.716 19.4283 646.172 19.3473 646.636 19.2919C647.224 19.2237 647.702 19.1683 648.068 19.1257C648.435 19.0788 648.701 19.0043 648.867 18.902C649.033 18.7997 649.116 18.6335 649.116 18.4034V18.3587C649.116 17.8004 648.959 17.3679 648.643 17.0611C648.332 16.7543 647.868 16.6009 647.25 16.6009C646.607 16.6009 646.099 16.7436 645.729 17.0291C645.362 17.3104 645.109 17.6236 644.968 17.9688L643.172 17.5597C643.385 16.9631 643.696 16.4815 644.105 16.1151C644.518 15.7443 644.994 15.4759 645.531 15.3097C646.067 15.1392 646.632 15.054 647.224 15.054C647.616 15.054 648.032 15.1009 648.471 15.1946C648.914 15.2841 649.327 15.4503 649.711 15.6932C650.099 15.9361 650.416 16.2834 650.663 16.7351C650.911 17.1825 651.034 17.7642 651.034 18.4801V25H649.168V23.6577H649.091C648.967 23.9048 648.782 24.1477 648.535 24.3864C648.288 24.625 647.97 24.8232 647.582 24.9808C647.195 25.1385 646.73 25.2173 646.189 25.2173ZM646.604 23.6832C647.133 23.6832 647.585 23.5788 647.96 23.37C648.339 23.1612 648.626 22.8885 648.822 22.5518C649.023 22.2109 649.123 21.8466 649.123 21.4588V20.1932C649.055 20.2614 648.923 20.3253 648.727 20.3849C648.535 20.4403 648.315 20.4893 648.068 20.532C647.821 20.5703 647.58 20.6065 647.346 20.6406C647.112 20.6705 646.915 20.696 646.758 20.7173C646.387 20.7642 646.048 20.843 645.741 20.9538C645.439 21.0646 645.196 21.2244 645.013 21.4332C644.834 21.6378 644.744 21.9105 644.744 22.2514C644.744 22.7244 644.919 23.0824 645.268 23.3253C645.618 23.5639 646.063 23.6832 646.604 23.6832ZM658.163 15.1818V16.7159H652.8V15.1818H658.163ZM654.238 12.8295H656.149V22.1172C656.149 22.4879 656.205 22.767 656.316 22.9545C656.426 23.1378 656.569 23.2635 656.744 23.3317C656.923 23.3956 657.117 23.4276 657.325 23.4276C657.479 23.4276 657.613 23.4169 657.728 23.3956C657.843 23.3743 657.933 23.3572 657.997 23.3445L658.342 24.9233C658.231 24.9659 658.073 25.0085 657.869 25.0511C657.664 25.098 657.409 25.1236 657.102 25.1278C656.599 25.1364 656.13 25.0469 655.695 24.8594C655.261 24.6719 654.909 24.3821 654.641 23.9901C654.372 23.598 654.238 23.1058 654.238 22.5135V12.8295ZM664.403 25.1982C663.436 25.1982 662.603 24.9915 661.904 24.5781C661.209 24.1605 660.672 23.5746 660.293 22.8203C659.918 22.0618 659.73 21.1733 659.73 20.1548C659.73 19.1491 659.918 18.2628 660.293 17.4957C660.672 16.7287 661.201 16.13 661.878 15.6996C662.56 15.2692 663.357 15.054 664.269 15.054C664.823 15.054 665.36 15.1456 665.88 15.3288C666.4 15.5121 666.866 15.7997 667.279 16.1918C667.693 16.5838 668.019 17.093 668.257 17.7195C668.496 18.3416 668.615 19.098 668.615 19.9886V20.6662H660.811V19.2344H666.743C666.743 18.7315 666.64 18.2862 666.436 17.8984C666.231 17.5064 665.944 17.1974 665.573 16.9716C665.206 16.7457 664.776 16.6328 664.282 16.6328C663.745 16.6328 663.276 16.7649 662.875 17.0291C662.479 17.2891 662.172 17.63 661.955 18.0518C661.742 18.4695 661.635 18.9233 661.635 19.4134V20.532C661.635 21.1882 661.75 21.7464 661.98 22.2067C662.215 22.6669 662.541 23.0185 662.958 23.2614C663.376 23.5 663.864 23.6193 664.422 23.6193C664.784 23.6193 665.115 23.5682 665.413 23.4659C665.711 23.3594 665.969 23.2017 666.186 22.9929C666.404 22.7841 666.57 22.5263 666.685 22.2195L668.494 22.5455C668.349 23.0781 668.089 23.5447 667.714 23.9453C667.343 24.3416 666.877 24.6506 666.314 24.8722C665.756 25.0895 665.119 25.1982 664.403 25.1982ZM678.093 17.5788L676.361 17.8857C676.289 17.6641 676.173 17.4531 676.016 17.2528C675.862 17.0526 675.654 16.8885 675.389 16.7607C675.125 16.6328 674.795 16.5689 674.399 16.5689C673.857 16.5689 673.406 16.6903 673.044 16.9332C672.681 17.1719 672.5 17.4808 672.5 17.8601C672.5 18.1882 672.622 18.4524 672.865 18.6527C673.107 18.853 673.499 19.017 674.041 19.1449L675.6 19.5028C676.504 19.7116 677.177 20.0334 677.62 20.468C678.063 20.9027 678.285 21.4673 678.285 22.1619C678.285 22.75 678.115 23.2741 677.774 23.7344C677.437 24.1903 676.966 24.5483 676.361 24.8082C675.76 25.0682 675.063 25.1982 674.271 25.1982C673.171 25.1982 672.274 24.9638 671.58 24.495C670.885 24.022 670.459 23.3509 670.301 22.4815L672.149 22.2003C672.264 22.6818 672.5 23.0462 672.858 23.2933C673.216 23.5362 673.683 23.6577 674.258 23.6577C674.884 23.6577 675.385 23.5277 675.76 23.2678C676.135 23.0036 676.323 22.6818 676.323 22.3026C676.323 21.9957 676.208 21.7379 675.977 21.5291C675.752 21.3203 675.404 21.1626 674.936 21.0561L673.274 20.6918C672.357 20.483 671.68 20.1506 671.241 19.6946C670.806 19.2386 670.589 18.6612 670.589 17.9624C670.589 17.3828 670.751 16.8757 671.075 16.4411C671.399 16.0064 671.846 15.6676 672.417 15.4247C672.988 15.1776 673.642 15.054 674.379 15.054C675.441 15.054 676.276 15.2841 676.885 15.7443C677.494 16.2003 677.897 16.8118 678.093 17.5788Z" fill="white"/>
<defs>
<linearGradient id="paint0_linear_604_180" x1="16.5" y1="15.75" x2="26.25" y2="25.5" gradientUnits="userSpaceOnUse">
<stop stop-color="#1F87FF" stop-opacity="0.48"/>
<stop offset="1" stop-color="#1F87FF" stop-opacity="0"/>
</linearGradient>
<linearGradient id="paint1_linear_604_180" x1="185" y1="9" x2="203" y2="27" gradientUnits="userSpaceOnUse">
<stop stop-color="#1F87FF" stop-opacity="0.64"/>
<stop offset="1" stop-color="#1F87FF" stop-opacity="0"/>
</linearGradient>
</defs>
</svg>
