<svg width="181" height="48" viewBox="0 0 181 48" fill="none" xmlns="http://www.w3.org/2000/svg">
<g filter="url(#filter0_i_608_36)">
<rect width="180.5" height="48" rx="24" fill="black"/>
<rect x="0.5" y="0.5" width="179.5" height="47" rx="23.5" stroke="url(#paint0_linear_608_36)"/>
<path d="M32.9893 21.348C32.9211 20.7429 32.6398 20.2741 32.1455 19.9418C31.6512 19.6051 31.029 19.4368 30.279 19.4368C29.7421 19.4368 29.2776 19.522 28.8856 19.6925C28.4935 19.8587 28.1888 20.0888 27.9715 20.3828C27.7584 20.6726 27.6519 21.0028 27.6519 21.3736C27.6519 21.6847 27.7243 21.9531 27.8692 22.179C28.0184 22.4048 28.2123 22.5945 28.4509 22.7479C28.6938 22.897 28.9537 23.0227 29.2307 23.125C29.5077 23.223 29.7741 23.304 30.0297 23.3679L31.3082 23.7003C31.7258 23.8026 32.154 23.9411 32.593 24.1158C33.0319 24.2905 33.4388 24.5206 33.8138 24.8061C34.1888 25.0916 34.4914 25.4453 34.7215 25.8672C34.9559 26.2891 35.0731 26.794 35.0731 27.3821C35.0731 28.1236 34.8813 28.782 34.4978 29.3572C34.1185 29.9325 33.5667 30.3864 32.8422 30.7188C32.1221 31.0511 31.2506 31.2173 30.2279 31.2173C29.2478 31.2173 28.3998 31.0618 27.6839 30.7507C26.968 30.4396 26.4076 29.9986 26.0028 29.4276C25.5979 28.8523 25.3742 28.1705 25.3316 27.3821H27.3131C27.3515 27.8551 27.5049 28.2493 27.7733 28.5646C28.0461 28.8757 28.3934 29.108 28.8153 29.2614C29.2414 29.4105 29.708 29.4851 30.2151 29.4851C30.7733 29.4851 31.2698 29.3977 31.7045 29.223C32.1434 29.044 32.4885 28.7969 32.74 28.4815C32.9914 28.1619 33.1171 27.7891 33.1171 27.3629C33.1171 26.9751 33.0063 26.6577 32.7847 26.4105C32.5674 26.1634 32.2712 25.9588 31.8962 25.7969C31.5255 25.6349 31.1057 25.4922 30.637 25.3686L29.0901 24.9467C28.0418 24.6612 27.2108 24.2415 26.5972 23.6875C25.9878 23.1335 25.6831 22.4006 25.6831 21.4886C25.6831 20.7344 25.8877 20.076 26.2968 19.5135C26.7059 18.951 27.2599 18.5142 27.9587 18.2031C28.6576 17.8878 29.4459 17.7301 30.3238 17.7301C31.2101 17.7301 31.9921 17.8857 32.6697 18.1967C33.3515 18.5078 33.8884 18.9361 34.2805 19.4815C34.6725 20.0227 34.877 20.6449 34.8941 21.348H32.9893ZM41.863 21.1818V22.7159H36.5001V21.1818H41.863ZM37.9383 18.8295H39.8495V28.1172C39.8495 28.4879 39.9049 28.767 40.0157 28.9545C40.1265 29.1378 40.2693 29.2635 40.444 29.3317C40.623 29.3956 40.8169 29.4276 41.0257 29.4276C41.1791 29.4276 41.3133 29.4169 41.4284 29.3956C41.5434 29.3743 41.6329 29.3572 41.6968 29.3445L42.042 30.9233C41.9312 30.9659 41.7735 31.0085 41.569 31.0511C41.3644 31.098 41.1088 31.1236 40.8019 31.1278C40.2991 31.1364 39.8303 31.0469 39.3957 30.8594C38.961 30.6719 38.6095 30.3821 38.341 29.9901C38.0725 29.598 37.9383 29.1058 37.9383 28.5135V18.8295ZM46.8344 31.2173C46.2123 31.2173 45.6498 31.1023 45.1469 30.8722C44.6441 30.6378 44.2456 30.299 43.9516 29.8558C43.6618 29.4126 43.517 28.8693 43.517 28.2259C43.517 27.6719 43.6235 27.2159 43.8366 26.858C44.0496 26.5 44.3373 26.2166 44.6995 26.0078C45.0617 25.799 45.4665 25.6413 45.914 25.5348C46.3614 25.4283 46.8174 25.3473 47.2819 25.2919C47.8699 25.2237 48.3472 25.1683 48.7137 25.1257C49.0802 25.0788 49.3465 25.0043 49.5127 24.902C49.6789 24.7997 49.762 24.6335 49.762 24.4034V24.3587C49.762 23.8004 49.6043 23.3679 49.289 23.0611C48.9779 22.7543 48.5134 22.6009 47.8955 22.6009C47.252 22.6009 46.7449 22.7436 46.3742 23.0291C46.0077 23.3104 45.7542 23.6236 45.6135 23.9688L43.8174 23.5597C44.0305 22.9631 44.3415 22.4815 44.7506 22.1151C45.164 21.7443 45.6391 21.4759 46.176 21.3097C46.713 21.1392 47.2776 21.054 47.8699 21.054C48.262 21.054 48.6775 21.1009 49.1164 21.1946C49.5596 21.2841 49.9729 21.4503 50.3564 21.6932C50.7442 21.9361 51.0617 22.2834 51.3089 22.7351C51.556 23.1825 51.6796 23.7642 51.6796 24.4801V31H49.8131V29.6577H49.7364C49.6128 29.9048 49.4275 30.1477 49.1803 30.3864C48.9331 30.625 48.6157 30.8232 48.2279 30.9808C47.8401 31.1385 47.3756 31.2173 46.8344 31.2173ZM47.2499 29.6832C47.7783 29.6832 48.23 29.5788 48.605 29.37C48.9843 29.1612 49.2719 28.8885 49.468 28.5518C49.6682 28.2109 49.7684 27.8466 49.7684 27.4588V26.1932C49.7002 26.2614 49.5681 26.3253 49.3721 26.3849C49.1803 26.4403 48.9608 26.4893 48.7137 26.532C48.4665 26.5703 48.2258 26.6065 47.9914 26.6406C47.757 26.6705 47.561 26.696 47.4033 26.7173C47.0326 26.7642 46.6938 26.843 46.387 26.9538C46.0844 27.0646 45.8415 27.2244 45.6583 27.4332C45.4793 27.6378 45.3898 27.9105 45.3898 28.2514C45.3898 28.7244 45.5645 29.0824 45.914 29.3253C46.2634 29.5639 46.7087 29.6832 47.2499 29.6832ZM54.2252 31V21.1818H56.0725V22.7415H56.1748C56.3538 22.2131 56.6691 21.7976 57.1208 21.495C57.5768 21.1882 58.0924 21.0348 58.6677 21.0348C58.787 21.0348 58.9276 21.0391 59.0896 21.0476C59.2558 21.0561 59.3857 21.0668 59.4795 21.0795V22.9077C59.4028 22.8864 59.2664 22.8629 59.0704 22.8374C58.8744 22.8075 58.6784 22.7926 58.4823 22.7926C58.0306 22.7926 57.6279 22.8885 57.2742 23.0803C56.9248 23.2678 56.6478 23.5298 56.4433 23.8665C56.2387 24.1989 56.1365 24.5781 56.1365 25.0043V31H54.2252ZM66.2966 21.1818V22.7159H60.9337V21.1818H66.2966ZM62.3719 18.8295H64.2831V28.1172C64.2831 28.4879 64.3385 28.767 64.4493 28.9545C64.5601 29.1378 64.7029 29.2635 64.8776 29.3317C65.0566 29.3956 65.2504 29.4276 65.4593 29.4276C65.6127 29.4276 65.7469 29.4169 65.8619 29.3956C65.977 29.3743 66.0665 29.3572 66.1304 29.3445L66.4756 30.9233C66.3648 30.9659 66.2071 31.0085 66.0026 31.0511C65.798 31.098 65.5423 31.1236 65.2355 31.1278C64.7327 31.1364 64.2639 31.0469 63.8293 30.8594C63.3946 30.6719 63.0431 30.3821 62.7746 29.9901C62.5061 29.598 62.3719 29.1058 62.3719 28.5135V18.8295ZM73.3279 31V17.9091H81.4458V19.6094H75.303V23.598H80.8641V25.2919H75.303V31H73.3279ZM83.5983 31V21.1818H85.4456V22.7415H85.5479C85.7268 22.2131 86.0422 21.7976 86.4939 21.495C86.9498 21.1882 87.4655 21.0348 88.0407 21.0348C88.1601 21.0348 88.3007 21.0391 88.4626 21.0476C88.6288 21.0561 88.7588 21.0668 88.8525 21.0795V22.9077C88.7758 22.8864 88.6395 22.8629 88.4434 22.8374C88.2474 22.8075 88.0514 22.7926 87.8554 22.7926C87.4037 22.7926 87.001 22.8885 86.6473 23.0803C86.2979 23.2678 86.0209 23.5298 85.8163 23.8665C85.6118 24.1989 85.5095 24.5781 85.5095 25.0043V31H83.5983ZM94.3865 31.1982C93.4191 31.1982 92.586 30.9915 91.8872 30.5781C91.1926 30.1605 90.6556 29.5746 90.2764 28.8203C89.9014 28.0618 89.7139 27.1733 89.7139 26.1548C89.7139 25.1491 89.9014 24.2628 90.2764 23.4957C90.6556 22.7287 91.184 22.13 91.8616 21.6996C92.5434 21.2692 93.3403 21.054 94.2522 21.054C94.8062 21.054 95.3431 21.1456 95.863 21.3288C96.3829 21.5121 96.8495 21.7997 97.2629 22.1918C97.6762 22.5838 98.0022 23.093 98.2409 23.7195C98.4795 24.3416 98.5988 25.098 98.5988 25.9886V26.6662H90.7941V25.2344H96.7259C96.7259 24.7315 96.6237 24.2862 96.4191 23.8984C96.2146 23.5064 95.9269 23.1974 95.5562 22.9716C95.1897 22.7457 94.7593 22.6328 94.265 22.6328C93.7281 22.6328 93.2593 22.7649 92.8588 23.0291C92.4624 23.2891 92.1556 23.63 91.9383 24.0518C91.7252 24.4695 91.6187 24.9233 91.6187 25.4134V26.532C91.6187 27.1882 91.7338 27.7464 91.9639 28.2067C92.1982 28.6669 92.5242 29.0185 92.9419 29.2614C93.3595 29.5 93.8474 29.6193 94.4056 29.6193C94.7678 29.6193 95.0981 29.5682 95.3964 29.4659C95.6947 29.3594 95.9525 29.2017 96.1698 28.9929C96.3872 28.7841 96.5534 28.5263 96.6684 28.2195L98.4774 28.5455C98.3325 29.0781 98.0725 29.5447 97.6975 29.9453C97.3268 30.3416 96.8602 30.6506 96.2977 30.8722C95.7394 31.0895 95.1024 31.1982 94.3865 31.1982ZM104.951 31.1982C103.984 31.1982 103.15 30.9915 102.452 30.5781C101.757 30.1605 101.22 29.5746 100.841 28.8203C100.466 28.0618 100.278 27.1733 100.278 26.1548C100.278 25.1491 100.466 24.2628 100.841 23.4957C101.22 22.7287 101.748 22.13 102.426 21.6996C103.108 21.2692 103.905 21.054 104.817 21.054C105.371 21.054 105.908 21.1456 106.427 21.3288C106.947 21.5121 107.414 21.7997 107.827 22.1918C108.241 22.5838 108.567 23.093 108.805 23.7195C109.044 24.3416 109.163 25.098 109.163 25.9886V26.6662H101.359V25.2344H107.29C107.29 24.7315 107.188 24.2862 106.984 23.8984C106.779 23.5064 106.491 23.1974 106.121 22.9716C105.754 22.7457 105.324 22.6328 104.829 22.6328C104.293 22.6328 103.824 22.7649 103.423 23.0291C103.027 23.2891 102.72 23.63 102.503 24.0518C102.29 24.4695 102.183 24.9233 102.183 25.4134V26.532C102.183 27.1882 102.298 27.7464 102.528 28.2067C102.763 28.6669 103.089 29.0185 103.506 29.2614C103.924 29.5 104.412 29.6193 104.97 29.6193C105.332 29.6193 105.663 29.5682 105.961 29.4659C106.259 29.3594 106.517 29.2017 106.734 28.9929C106.952 28.7841 107.118 28.5263 107.233 28.2195L109.042 28.5455C108.897 29.0781 108.637 29.5447 108.262 29.9453C107.891 30.3416 107.425 30.6506 106.862 30.8722C106.304 31.0895 105.667 31.1982 104.951 31.1982ZM115.555 19.6094V17.9091H125.687V19.6094H121.602V31H119.633V19.6094H115.555ZM126.753 31V21.1818H128.6V22.7415H128.702C128.881 22.2131 129.196 21.7976 129.648 21.495C130.104 21.1882 130.62 21.0348 131.195 21.0348C131.314 21.0348 131.455 21.0391 131.617 21.0476C131.783 21.0561 131.913 21.0668 132.007 21.0795V22.9077C131.93 22.8864 131.794 22.8629 131.598 22.8374C131.402 22.8075 131.206 22.7926 131.01 22.7926C130.558 22.7926 130.155 22.8885 129.802 23.0803C129.452 23.2678 129.175 23.5298 128.971 23.8665C128.766 24.1989 128.664 24.5781 128.664 25.0043V31H126.753ZM133.661 31V21.1818H135.572V31H133.661ZM134.626 19.6669C134.294 19.6669 134.008 19.5561 133.769 19.3345C133.535 19.1087 133.418 18.8402 133.418 18.5291C133.418 18.2138 133.535 17.9453 133.769 17.7237C134.008 17.4979 134.294 17.3849 134.626 17.3849C134.958 17.3849 135.242 17.4979 135.476 17.7237C135.715 17.9453 135.834 18.2138 135.834 18.5291C135.834 18.8402 135.715 19.1087 135.476 19.3345C135.242 19.5561 134.958 19.6669 134.626 19.6669ZM141 31.2173C140.378 31.2173 139.816 31.1023 139.313 30.8722C138.81 30.6378 138.412 30.299 138.118 29.8558C137.828 29.4126 137.683 28.8693 137.683 28.2259C137.683 27.6719 137.79 27.2159 138.003 26.858C138.216 26.5 138.503 26.2166 138.866 26.0078C139.228 25.799 139.633 25.6413 140.08 25.5348C140.527 25.4283 140.983 25.3473 141.448 25.2919C142.036 25.2237 142.513 25.1683 142.88 25.1257C143.246 25.0788 143.513 25.0043 143.679 24.902C143.845 24.7997 143.928 24.6335 143.928 24.4034V24.3587C143.928 23.8004 143.77 23.3679 143.455 23.0611C143.144 22.7543 142.679 22.6009 142.062 22.6009C141.418 22.6009 140.911 22.7436 140.54 23.0291C140.174 23.3104 139.92 23.6236 139.78 23.9688L137.983 23.5597C138.196 22.9631 138.508 22.4815 138.917 22.1151C139.33 21.7443 139.805 21.4759 140.342 21.3097C140.879 21.1392 141.444 21.054 142.036 21.054C142.428 21.054 142.843 21.1009 143.282 21.1946C143.726 21.2841 144.139 21.4503 144.522 21.6932C144.91 21.9361 145.228 22.2834 145.475 22.7351C145.722 23.1825 145.846 23.7642 145.846 24.4801V31H143.979V29.6577H143.902C143.779 29.9048 143.593 30.1477 143.346 30.3864C143.099 30.625 142.782 30.8232 142.394 30.9808C142.006 31.1385 141.542 31.2173 141 31.2173ZM141.416 29.6832C141.944 29.6832 142.396 29.5788 142.771 29.37C143.15 29.1612 143.438 28.8885 143.634 28.5518C143.834 28.2109 143.934 27.8466 143.934 27.4588V26.1932C143.866 26.2614 143.734 26.3253 143.538 26.3849C143.346 26.4403 143.127 26.4893 142.88 26.532C142.633 26.5703 142.392 26.6065 142.157 26.6406C141.923 26.6705 141.727 26.696 141.569 26.7173C141.199 26.7642 140.86 26.843 140.553 26.9538C140.25 27.0646 140.008 27.2244 139.824 27.4332C139.645 27.6378 139.556 27.9105 139.556 28.2514C139.556 28.7244 139.731 29.0824 140.08 29.3253C140.429 29.5639 140.875 29.6832 141.416 29.6832ZM150.302 17.9091V31H148.391V17.9091H150.302Z" fill="white"/>
</g>
<defs>
<filter id="filter0_i_608_36" x="0" y="0" width="180.5" height="48" filterUnits="userSpaceOnUse" color-interpolation-filters="sRGB">
<feFlood flood-opacity="0" result="BackgroundImageFix"/>
<feBlend mode="normal" in="SourceGraphic" in2="BackgroundImageFix" result="shape"/>
<feColorMatrix in="SourceAlpha" type="matrix" values="0 0 0 0 0 0 0 0 0 0 0 0 0 0 0 0 0 0 127 0" result="hardAlpha"/>
<feOffset/>
<feGaussianBlur stdDeviation="15"/>
<feComposite in2="hardAlpha" operator="arithmetic" k2="-1" k3="1"/>
<feColorMatrix type="matrix" values="0 0 0 0 0.0392157 0 0 0 0 0.486275 0 0 0 0 1 0 0 0 0.8 0"/>
<feBlend mode="normal" in2="shape" result="effect1_innerShadow_608_36"/>
</filter>
<linearGradient id="paint0_linear_608_36" x1="90.25" y1="0" x2="90.25" y2="48" gradientUnits="userSpaceOnUse">
<stop stop-color="#0A7CFF"/>
<stop offset="1" stop-color="#0A7CFF" stop-opacity="0"/>
</linearGradient>
</defs>
</svg>
